<?xml version="1.0" encoding="UTF-8"?>
<svg width="40px" height="30px" viewBox="0 0 40 30" version="1.1" xmlns="http://www.w3.org/2000/svg" xmlns:xlink="http://www.w3.org/1999/xlink">
    <!-- Generator: sketchtool 57.1 (101010) - https://sketch.com -->
    <title>5418C35C-017D-4FD9-B8BF-724D025B69C1</title>
    <desc>Created with sketchtool.</desc>
    <g id="Page-1" stroke="none" stroke-width="1" fill="none" fill-rule="evenodd">
        <g id="Layout-Text" transform="translate(-122.000000, -138.000000)">
            <g id="flame-no-comments" transform="translate(142.000000, 152.791667) scale(-1, 1) translate(-142.000000, -152.791667) translate(122.000000, 138.000000)">
                <g id="Group">
                    <path d="M22.9270341,19.4579092 C22.5643045,18.6126711 21.9711286,17.83875 21.0950131,17.2993824 C21.9711286,17.83875 22.5643045,18.614256 22.9270341,19.4579092 Z" id="Path"></path>
                    <path d="M8.27784514,8.16775744 L8.29984514,8.15975744 L8.27784514,8.16775744 Z" id="Path"></path>
                    <path d="M12.3779528,25.2155655 C10.8136483,24.6703869 9.14120735,24.0190253 7.59265092,23.3497024 C9.14120735,24.0190253 10.8136483,24.6703869 12.3779528,25.2155655 Z" id="Path"></path>
                    <path d="M18.5548556,2.38040179 C18.0954856,2.32926488 17.6369029,2.48378497 17.3007874,2.80302083 C17.195853,2.90460789 17.1049344,3.01993006 17.0304462,3.14587054 L17.0251969,3.14904018 C16.9968504,3.19764137 16.9727034,3.24835565 16.9469816,3.30012649 L16.9469816,3.30012649 C16.8937008,3.41354688 16.8550656,3.5334122 16.832021,3.65671131 C16.823622,3.70002976 16.8167979,3.74387649 16.8120735,3.78877976 C16.784147,4.04245685 16.8178478,4.29914509 16.9102362,4.53681548 C17.2120735,4.33607143 18.3485564,5.15542411 18.3753281,5.55004464 C18.6501837,5.55199926 18.9207349,5.48152753 19.160105,5.34560268 C19.2779003,5.2817872 19.3857743,5.20101414 19.480315,5.10576637 L19.480315,5.10576637 C19.5002625,5.08622024 19.519685,5.06614583 19.5391076,5.04501488 L19.5501312,5.03339286 L19.5501312,5.03339286 C19.6559055,4.91574628 19.7443045,4.78336086 19.8125984,4.64035714 C20.1841995,3.84482961 19.8446194,2.89673661 19.0540682,2.52277158 C18.8959055,2.44796801 18.7265092,2.40000074 18.5527559,2.38093006 L18.5548556,2.38040179 Z" id="Path" fill="#FF3A00" fill-rule="nonzero"></path>
                    <path d="M17.8866142,5.4702753 L17.8866142,5.4702753 C17.9932808,5.50593378 18.1034646,5.52981176 18.2152231,5.54159226 C18.2696063,5.54772024 18.3243045,5.5507314 18.3790026,5.55057886 C18.352231,5.15595238 17.215748,4.33554315 16.9139108,4.53734375 C16.9641995,4.66756324 17.0314436,4.79049256 17.1139108,4.90290923 C17.2446194,4.72223958 18.0146982,5.29224702 17.8866142,5.4702753 Z" id="Path" fill="#04294F" fill-rule="nonzero"></path>
                    <path d="M16.8635171,6.88710565 L17.8866142,5.4702753 L17.8866142,5.4702753 C18.0146982,5.29224702 17.2446194,4.72223958 17.112336,4.90290923 L17.112336,4.90290923 L15.7706037,6.76190476 C15.9963255,6.78340551 16.2213648,6.80749479 16.4456693,6.83427827 C16.5879265,6.84959821 16.7244094,6.86755952 16.8635171,6.88710565 Z" id="Path" fill="#00AEE0" fill-rule="nonzero"></path>
                    <path d="M36.7044619,8.84277394 C36.2635171,8.8421942 35.8425197,9.02767113 35.543832,9.35414435 C35.4363255,9.46782887 35.347664,9.59825967 35.2813648,9.7403125 L35.2813648,9.7403125 C35.2552231,9.79509449 35.232231,9.85135565 35.2125984,9.90883185 L35.2152231,9.90883185 C35.1753281,10.02109 35.1482415,10.1375216 35.1343832,10.2559077 C35.127874,10.3150216 35.1245144,10.3744524 35.1244061,10.433936 C35.1238845,10.6892507 35.1849344,10.9408676 35.3023622,11.1671801 C35.5811024,10.9347396 36.7989501,11.6257217 36.8677165,12.0124182 C37.1585302,11.982465 37.4352231,11.8714219 37.6666667,11.691756 C37.951706,11.4344866 38.0902887,11.3018899 38.2278215,10.850744 C38.4574278,10.0040796 37.9615748,9.13042039 37.1202625,8.89935342 C36.9850919,8.86221577 36.8456168,8.8433564 36.7055118,8.84330357 L36.7044619,8.84277394 Z" id="Path" fill="#FF3A00" fill-rule="nonzero"></path>
                    <path d="M35.3028871,11.1655952 C35.3669291,11.2896339 35.4470866,11.4045863 35.5412073,11.5073884 C35.6530184,11.3129836 36.47979,11.7963542 36.3716535,11.987061 L36.3716535,11.987061 C36.4810499,12.0107277 36.5925984,12.022561 36.7044619,12.0224554 C36.7591601,12.0226667 36.8138583,12.0196555 36.8682415,12.0134747 C36.7979003,11.6220238 35.5816273,10.9352679 35.3028871,11.1655952 Z" id="Path" fill="#04294F" fill-rule="nonzero"></path>
                    <path d="M2.29081365,19.3163318 C1.39107612,19.7331399 0.820997375,20.3876711 0.62519685,21.2260417 C0.705669291,21.186157 0.792965879,21.1619621 0.882414698,21.1547247 C1.0560105,21.1382426 1.22944882,21.1874249 1.36902887,21.2926042 C1.6503937,20.3454092 2.57270341,19.9021875 3.47506562,19.6982738 C3.4152231,19.4621354 3.36535433,19.2228274 3.32808399,18.9734821 C2.97133858,19.0507686 2.62362205,19.1656682 2.29081365,19.3163318 Z" id="Path" fill="#FF3A00" fill-rule="nonzero"></path>
                    <path d="M2.94931949,21.3832344 L2.94931949,21.3832344 C2.94871949,21.3796344 2.94871949,21.3758344 2.94931949,21.3722344 C2.94881949,21.3758344 2.94881949,21.3796344 2.94931949,21.3832344 Z" id="Path" fill="#04294F" fill-rule="nonzero"></path>
                    <path d="M22.9270341,19.4579092 C22.5643045,18.6126711 21.9711286,17.83875 21.0950131,17.2993824 C20.6869291,17.0503013 20.2447769,16.8627113 19.7826772,16.7425818 C17.2440945,16.0674479 11.7422572,14.7520461 7.43779528,12.9464063 C6.59370079,12.5924628 5.79527559,12.2200298 5.07559055,11.8296354 C4.47296588,12.6785714 3.98950131,13.7139881 3.64619423,14.9554315 C3.2351706,16.4388244 3.14593176,17.7721875 3.32808399,18.9734821 C3.36535433,19.2207143 3.4152231,19.4621354 3.47506562,19.6982738 C3.59249344,20.1596682 3.75459318,20.6083839 3.95905512,21.0379762 C3.52493438,21.0136756 3.11496063,21.0585789 2.9648294,21.278869 C3.04262467,21.1681429 3.19265092,21.1375558 3.30708661,21.2091369 C3.632021,21.4082961 3.99685039,21.6148512 4.39265092,21.8261607 C5.32020997,22.3211533 6.42099738,22.8404464 7.59475066,23.3481176 C9.14330709,24.0190253 10.816273,24.6688021 12.3800525,25.2155655 C14.1286089,25.8257217 15.7396325,26.3053943 16.8866142,26.53625 C20.4509186,27.2557589 22.608399,25.060253 23.1984252,23.0892634 C23.4955381,22.0913542 23.4614173,20.7009375 22.9270341,19.4579092 Z" id="Path" fill="#04294F" fill-rule="nonzero"></path>
                    <path d="M22.8031496,26.391503 C22.4050919,26.7444427 21.9640945,27.0451362 21.4908136,27.2863988 C21.4041995,27.3307738 21.3170604,27.3719792 21.2283465,27.412128 C21.4220472,27.7332128 21.6708661,28.0170543 21.9632546,28.2504985 C22.6485564,27.9410357 23.2747507,27.5133981 23.8136483,26.9868676 C23.5504462,26.7165499 23.3107087,26.4240446 23.0971129,26.1125744 C23.0015748,26.208192 22.9034121,26.3006399 22.8031496,26.391503 Z" id="Path" fill="#00AEE0" fill-rule="nonzero"></path>
                    <path d="M11.008399,9.76566964 L10.007874,9.4719494 C9.30519685,10.1230469 8.72824147,10.8992396 8.30603675,11.7614881 C8.62939633,11.8851042 8.95343832,12.0064487 9.27821522,12.1254688 C9.70419948,11.2374933 10.2909186,10.4372113 11.008399,9.76566964 Z" id="Path" fill="#00AEE0" fill-rule="nonzero"></path>
                    <path d="M29.3580052,18.5033185 C29.3705512,17.9591964 29.3064042,17.4159725 29.1674541,16.8899702 C29.0405774,16.4058073 28.8613648,15.9370699 28.6330709,15.4921577 C28.3958005,15.0315558 28.1182677,14.5930885 27.8036745,14.1820387 C27.1658793,13.345253 26.3795276,12.590878 25.5107612,11.9263095 C24.6275066,11.2570394 23.6820997,10.6751987 22.687664,10.188817 C21.6791076,9.69229241 20.6331234,9.27664658 19.5595801,8.94578869 C18.4742257,8.60425967 17.3699738,8.32675744 16.2524934,8.11481399 C15.6089239,7.9936808 14.9615223,7.89838021 14.3102362,7.82901786 L14.2619423,7.82320685 C12.3721785,7.59974702 11.0419948,7.61189732 10.048294,7.73392857 C9.4464042,7.81972024 8.85244094,7.95485268 8.27244094,8.13805804 L8.26089239,8.14228423 C7.92656168,8.24904836 7.59863517,8.37514732 7.27874016,8.52 C7.19543307,8.55697917 7.11270341,8.59591295 7.03044619,8.63674851 C6.15595801,9.06280134 5.36677165,9.647125 4.7023622,10.360506 L4.7023622,10.360506 L4.64566929,10.4212574 L4.75065617,10.4677455 C4.74094488,10.4449769 4.74094488,10.4191972 4.75065617,10.3964286 C4.7528084,10.3920439 4.7552231,10.3877649 4.75800525,10.38375 L8.19947507,11.8291071 C8.19947507,11.8291071 12.7989501,13.5264509 13.6897638,13.7879464 C14.5805774,14.049442 20.8813648,15.9359077 20.8813648,15.9359077 C20.8813648,15.9359077 24.5690289,17.1509375 24.7265092,21.3295833 C24.8839895,25.5082292 21.3811024,28.4692039 17.1149606,27.7216964 C12.8488189,26.974189 4.75695538,23.3370238 3.83412073,22.7495833 L3.77322835,22.7495833 C3.77133858,22.7453043 3.76976378,22.7408668 3.76850394,22.7363765 C3.73490814,22.7189435 3.70183727,22.7009821 3.6687664,22.6835491 C5.78582677,25.5135119 9.73648294,27.3899405 14.3942257,28.7058705 C19.7049869,30.2051116 24.888189,29.6176711 28.2682415,27.4987649 C26.9412073,27.0845982 26.0041995,25.9245089 26.5695538,22.6793229 C27.1107612,19.5508854 28.0950131,18.6116146 29.3580052,18.5033185 Z" id="Path" fill="#00AEE0" fill-rule="nonzero"></path>
                    <path d="M3.77322835,22.6629464 C3.79816273,22.6172507 3.85490814,22.6000818 3.9007874,22.6243824 L3.9007874,22.6243824 C4.81312336,23.1109226 5.74383202,23.5615402 6.68293963,23.9883854 C7.62204724,24.4152307 8.57795276,24.8140774 9.53963255,25.1923214 C10.5013123,25.5705655 11.4692913,25.9319048 12.447769,26.2636607 C13.4262467,26.5954167 14.4115486,26.9039286 15.4068241,27.1707068 C15.6551181,27.2409673 15.9060367,27.2974926 16.1553806,27.3603571 C16.280315,27.3925818 16.4057743,27.4174107 16.5312336,27.444881 C16.6566929,27.4723512 16.7821522,27.5014063 16.9076115,27.5246503 C17.4074016,27.6250223 17.9155381,27.6775327 18.4251969,27.6816268 C19.4372703,27.6863021 20.4545932,27.4771057 21.3532808,27.0122247 C21.8034646,26.7822143 22.2227297,26.4955201 22.6010499,26.1590625 C22.7886614,25.9903318 22.9664042,25.8107716 23.1333333,25.6212798 C23.2999475,25.4306257 23.4545932,25.2296704 23.5963255,25.0195759 C23.8804199,24.6004435 24.1097638,24.1462865 24.2787402,23.6682515 C24.3616798,23.4300528 24.4271391,23.1860432 24.4745407,22.9381771 C24.5211549,22.688779 24.5519685,22.4366339 24.5669291,22.1832738 C24.5805774,21.9295439 24.5805774,21.6752329 24.5669291,21.421503 L24.5527559,21.2307961 L24.5454068,21.1357068 L24.5343832,21.0411458 L24.512336,20.8514955 L24.4824147,20.6629018 C24.4734908,20.6000372 24.4614173,20.5377009 24.448294,20.4753646 L24.4104987,20.2883557 L24.3653543,20.1029315 L24.3427822,20.0104836 L24.3160105,19.918564 L24.2635171,19.7357813 L24.2020997,19.5551116 C24.1643045,19.4341369 24.1128609,19.3173884 24.0682415,19.1985268 C23.8737533,18.7299479 23.6217848,18.2876771 23.3181102,17.8820685 C22.7021522,17.0725945 21.8703937,16.4557292 20.919685,16.1033705 C20.8010499,16.0611086 20.6839895,16.0130357 20.5616798,15.9802827 C20.4393701,15.9475298 20.3212598,15.9068527 20.1942257,15.874628 C19.944357,15.8064807 19.6939633,15.7399182 19.4446194,15.6696577 C18.4458268,15.3932121 17.4510761,15.1033482 16.4603675,14.800119 C14.4787402,14.194189 12.5081365,13.5507515 10.5580052,12.845506 C8.60787402,12.1402604 6.67926509,11.3763765 4.79107612,10.516875 C4.76955381,10.5068378 4.75265092,10.4888765 4.74383202,10.466689 L4.63884514,10.4202009 C4.54052493,10.5279688 4.44461942,10.6390647 4.3511811,10.7535417 C4.17905512,10.9646399 4.20950131,11.2762158 4.41926509,11.4494368 C4.43879265,11.4656019 4.45958005,11.4801823 4.48136483,11.493125 C4.67139108,11.6061756 4.86808399,11.7176414 5.07139108,11.8275223 C5.79212598,12.2179167 6.59002625,12.5903497 7.4335958,12.9442932 C11.7380577,14.749933 17.239895,16.0653348 19.7784777,16.7404688 C20.2405774,16.8605982 20.6827297,17.0481882 21.0908136,17.2972693 C21.9669291,17.8366369 22.5606299,18.6121429 22.9228346,19.4557961 C23.4572178,20.6988244 23.4913386,22.0892411 23.192126,23.0876786 C22.6015748,25.0586682 20.4446194,27.2541741 16.880315,26.5346652 C15.7333333,26.3032813 14.1223097,25.8236086 12.3737533,25.2139807 C10.8136483,24.6703869 9.14120735,24.0190253 7.59265092,23.3497024 C6.42099738,22.8420313 5.32020997,22.3227381 4.39055118,21.8277455 C3.99475066,21.616436 3.62992126,21.409881 3.30498688,21.2107217 C3.19055118,21.1391406 3.04052493,21.1697277 2.96272966,21.2804539 C2.94666667,21.3024301 2.93427822,21.3268891 2.92598425,21.3528274 C2.92566929,21.3547292 2.92566929,21.3567366 2.92598425,21.3586384 C2.9064042,21.4231406 2.91364829,21.4928728 2.94593176,21.5519866 C3.1560105,21.9477165 3.39664042,22.3262247 3.6656168,22.6840774 L3.6656168,22.6840774 C3.69868766,22.7020387 3.73175853,22.72 3.76535433,22.7369048 C3.75784777,22.7121815 3.76068241,22.6855037 3.77322835,22.6629464 Z" id="Path" fill="#FFB400" fill-rule="nonzero"></path>
                    <path d="M5.40209974,17.5386905 C5.41585302,17.5637835 5.4335958,17.5864464 5.45459318,17.6057813 C5.56010499,17.6980179 5.71989501,17.6867128 5.81154856,17.5805298 C5.81170604,17.5803185 5.81191601,17.5801071 5.81207349,17.5798958 L5.82624672,17.5635193 C5.90724409,17.4653661 5.9743832,17.3563832 6.02572178,17.2396875 C6.11942257,17.0295402 6.1743832,16.8040201 6.18792651,16.5740625 C6.19133858,16.5128356 6.19133858,16.4514501 6.18792651,16.3902232 C6.18530184,16.3242946 6.17506562,16.2588415 6.15748031,16.1952902 L6.14173228,16.1424628 C6.10099738,16.0128244 5.96351706,15.9409792 5.83475066,15.9819732 C5.81154856,15.989369 5.7896063,16.0001987 5.76955381,16.0140923 C5.70703412,16.0574107 5.64997375,16.108125 5.59947507,16.1651786 C5.55343832,16.2178475 5.5119685,16.2744256 5.47559055,16.3342262 C5.40566929,16.4509219 5.35364829,16.5775491 5.32125984,16.7098289 C5.28755906,16.8431124 5.27480315,16.980939 5.28346457,17.1181845 C5.29034121,17.2656786 5.33091864,17.4095804 5.40209974,17.5386905 Z" id="Path" fill="#FFB400" fill-rule="nonzero"></path>
                    <path d="M8.70498688,21.1837798 C8.72388451,21.1927604 9.17217848,21.4030134 9.78372703,21.6153795 C9.82761155,21.6308051 9.87375328,21.6386235 9.92020997,21.6386235 C10.152126,21.6429025 10.3435171,21.4572143 10.347769,21.2238229 C10.3511811,21.0377121 10.2331759,20.8713058 10.0572178,20.8139881 C9.49396325,20.6185268 9.07034121,20.4209524 9.05984252,20.4161979 C8.84923885,20.3175692 8.59905512,20.4094888 8.50104987,20.6214323 C8.40304462,20.8333757 8.4943832,21.085151 8.70498688,21.1837798 Z" id="Path" fill="#FFB400" fill-rule="nonzero"></path>
                    <path d="M0.882414698,21.1547247 C0.792965879,21.1619621 0.705669291,21.186157 0.62519685,21.2260417 C0.0577427822,21.5097247 0.00104986877,22.5324628 0.042519685,23.019003 C0.117742782,23.5681436 0.621102362,23.9519345 1.16677165,23.8762329 C1.67370079,23.8059196 2.04551181,23.3609018 2.02729659,22.8462574 C1.99107612,22.4236384 1.81259843,21.6169643 1.36902887,21.2926042 C1.22944882,21.1874249 1.0560105,21.1382426 0.882414698,21.1547247 Z" id="Path" fill="#04294F" fill-rule="nonzero"></path>
                    <path d="M7.27664042,8.51894345 C7.27664042,8.51894345 7.43779528,8.20197917 8.18635171,7.86494048 C10.0167979,7.0434747 13.5207349,6.57383929 20.2104987,8.56279018 C27.1496063,10.6262277 30.1779528,14.7515179 30.1564304,18.5281473 L30.2188976,18.5365997 C30.4398425,18.5655491 30.6580577,18.6125655 30.8713911,18.6771205 C31.0503937,18.7267783 31.2146982,18.7827753 31.3669291,18.8387723 L31.8582677,17.9761012 C31.795748,17.3681109 31.6672441,16.7687842 31.4750656,16.1889509 C31.2627297,15.5514829 30.9821522,14.9391607 30.6383202,14.3627083 C30.3030446,13.803372 29.9190551,13.275151 29.4908136,12.7842262 C28.6456693,11.8137872 27.6729659,11.0034152 26.6440945,10.3150744 C25.6205774,9.63840848 24.5346982,9.06243155 23.4015748,8.59501488 C22.2853543,8.13229985 21.1346457,7.75891592 19.960105,7.47824405 C18.9383727,7.22874033 17.9046719,7.03179985 16.8629921,6.8881622 C16.7238845,6.86914435 16.5847769,6.85065476 16.4430446,6.83533482 C16.2183727,6.80855134 15.9933333,6.78446205 15.767979,6.76296131 C14.8056693,6.66829464 13.8385302,6.63300595 12.871916,6.65730655 C11.6750656,6.68261086 10.4838845,6.8298936 9.31653543,7.09683036 C8.13333333,7.35832589 7.45669291,7.92622024 7.00682415,8.64837054 L7.02572178,8.63938988 C7.10761155,8.59887128 7.1903937,8.55999033 7.27401575,8.52264137 L7.27664042,8.51894345 Z" id="Path" fill="#FF3A00" fill-rule="nonzero"></path>
                    <path d="M35.5412073,11.5073884 L35.5412073,11.5073884 L31.8582677,17.9761012 L31.3669291,18.8387723 C31.668084,18.9500796 31.955853,19.0951964 32.2246719,19.2714286 L36.3716535,11.987061 L36.3716535,11.987061 C36.47979,11.7963542 35.6530184,11.3129836 35.5412073,11.5073884 Z" id="Path" fill="#00AEE0" fill-rule="nonzero"></path>
                    <path d="M31.7874016,27.2827009 C31.6246194,27.3675417 31.4545407,27.4373795 31.2792651,27.491369 C31.4571129,27.444881 31.6280315,27.3747262 31.7874016,27.2827009 Z" id="Path" fill="#04294F" fill-rule="nonzero"></path>
                    <path d="M33.5433071,21.6856399 C33.4824147,21.0321652 33.319685,20.5377009 33.0808399,20.1647396 C32.7853018,19.7025 32.3732283,19.4251563 31.8944882,19.2666741 C31.6778478,19.1962024 31.4552231,19.1461749 31.2293963,19.1171726 C29.6813648,18.9058631 28.4682415,19.4262128 27.8566929,22.9408185 C27.2451444,26.4554241 28.5391076,27.3217932 30.0887139,27.5368006 C30.1937008,27.5515923 30.3028871,27.562686 30.4089239,27.5690253 C30.6993176,27.5900506 30.9912336,27.5652746 31.2740157,27.4955952 L31.2782152,27.4955952 C31.4534908,27.4416057 31.6235696,27.3717679 31.7863517,27.2869271 C32.1811024,27.0592411 32.5317585,26.6794122 32.8199475,26.0882738 C33.808399,23.995253 33.5433071,21.6856399 33.5433071,21.6856399 Z" id="Path" fill="#FFB400" fill-rule="nonzero"></path>
                    <path d="M33.6650919,21.8705357 L33.6619423,21.865253 C33.6275066,21.8110521 33.5888714,21.759651 33.5464567,21.7115253 C33.3900787,21.5359799 33.1895013,21.406183 32.9658793,21.3359226 C32.8855118,21.3090335 32.8034646,21.2876912 32.72021,21.2720015 C32.6729659,21.2624926 32.6246719,21.2545685 32.5753281,21.2471726 C32.0503937,21.1753274 31.5874016,21.2471726 31.2230971,21.7257887 C31.1548031,21.8090446 31.0966404,21.9001719 31.0498688,21.9973214 L30.952231,22.6999256 L31.935958,26.1918155 C31.935958,26.1918155 31.8771654,26.2208705 32.2509186,26.2103051 C32.3777428,26.2086146 32.503832,26.1908646 32.6262467,26.1574777 L32.6314961,26.1574777 C32.6967979,26.1355015 32.7609449,26.1100915 32.823622,26.0814063 C32.8519685,26.0687277 32.8761155,26.0555208 32.9028871,26.042314 C33.3590551,25.7781771 33.7165354,25.1680208 33.8860892,23.945067 C34.0272966,22.9196875 33.9217848,22.2725521 33.6650919,21.8705357 Z" id="Path" fill="#FF3A00" fill-rule="nonzero"></path>
                    <path d="M32.0913386,26.2359107 L31.9653543,26.2139107 C32.0073491,26.2269107 32.0498688,26.2269107 32.0913386,26.2359107 Z" id="Path" fill="#FF3A00" fill-rule="nonzero"></path>
                    <path d="M31.8892388,26.1865327 L31.9060367,26.1865327 L31.935958,26.1897024 L32.0409449,24.988936 L32.2146982,25.0105952 C32.2488189,25.0153497 32.2813648,25.0185193 32.311811,25.0201042 C32.3987402,25.0270246 32.4861942,25.0193118 32.5706037,24.9973884 C32.6031496,24.9867173 32.6350131,24.9741972 32.6661417,24.959881 C32.6808399,24.9530134 32.6929134,24.9472024 32.703937,24.9408631 C32.9496063,24.7992857 33.1175853,24.423683 33.2005249,23.8262054 C33.271916,23.3132515 33.2362205,22.9397619 33.0955381,22.7168304 L33.0897638,22.7078497 C33.0740682,22.6842887 33.0565354,22.6619955 33.0372703,22.6412872 C32.963832,22.5595632 32.8696588,22.4994457 32.7648294,22.4674851 C32.723937,22.4539085 32.6822047,22.4429732 32.639895,22.4347321 C32.6141732,22.4294494 32.5874016,22.4257515 32.5627297,22.4220536 C32.2666667,22.3813765 32.0855643,22.4368452 31.9370079,22.6143452 L31.8293963,22.7427158 L31.0498688,21.9973214 C30.8650919,22.341756 30.711811,22.8245982 30.5958005,23.491808 C30.2388451,25.5430952 30.9879265,26.0571057 31.8892388,26.1865327 Z M32.4666667,23.042247 L32.5060367,23.0491146 C32.5288189,23.0532351 32.5512861,23.0590461 32.5732283,23.0665476 C32.6339108,23.0856183 32.688294,23.1208542 32.7307087,23.1685045 C32.7423622,23.1815 32.7529134,23.1954464 32.7622047,23.2102381 L32.7622047,23.2102381 C32.832021,23.3206473 32.8608924,23.497619 32.8225722,23.7770759 C32.775853,24.1114732 32.6782152,24.2784077 32.5538058,24.350253 L32.5317585,24.3613467 C32.5166929,24.3683728 32.4992126,24.3752403 32.4792651,24.3819494 L32.4792651,24.3819494 C32.4316535,24.3944167 32.3823622,24.3988542 32.3333333,24.3951563 L32.2808399,24.3904018 L32.2761155,24.3904018 C32.0299213,24.3550074 31.8251969,24.2144866 31.9228346,23.6539881 C32.0204724,23.0934896 32.2188976,23.0084375 32.4671916,23.042247 L32.4666667,23.042247 L32.4666667,23.042247 Z" id="Shape" fill="#FF3A00" fill-rule="nonzero"></path>
                    <path d="M32.6309711,26.1558929 C32.6961155,26.1371391 32.759685,26.1131027 32.8209974,26.0840476 C32.848294,26.0708408 32.8734908,26.0565774 32.9023622,26.0407292 C32.8776903,26.053936 32.8498688,26.0671429 32.8230971,26.0798214 C32.7604199,26.1085067 32.696273,26.1339167 32.6309711,26.1558929 Z" id="Path" fill="#04294F" fill-rule="nonzero"></path>
                    <path d="M32.7034121,21.1018973 C32.5965879,21.0596882 32.4875591,21.0231845 32.3769029,20.9925446 L32.3422572,20.9825074 C32.2607874,20.9586823 32.1780577,20.9392946 32.0944882,20.9243973 L32.0944882,20.9243973 C32.0577428,20.9175298 32.0215223,20.912247 31.9847769,20.9069643 C31.0010499,20.7722545 30.2299213,21.1040104 29.8414698,23.3370238 C29.4740157,25.4554018 30.1942257,26.0602753 31.1076115,26.2319643 C31.1223097,26.2351339 31.1364829,26.2377753 31.1511811,26.2398884 C31.376168,26.2816749 31.6049344,26.299372 31.8335958,26.2927158 C32.1029921,26.2855841 32.3700787,26.2400469 32.6267717,26.1574777 C32.504357,26.1908646 32.3782677,26.2086146 32.2514436,26.2103051 L32.3286089,25.3402381 C32.4423622,25.3456265 32.556273,25.3329479 32.6661417,25.3027307 L32.671916,25.3027307 C32.7151181,25.2883088 32.7575328,25.2715625 32.7989501,25.2525446 C32.8199475,25.243564 32.8383202,25.2340551 32.8598425,25.222433 C33.2026247,25.0248586 33.4167979,24.58375 33.5149606,23.8742783 C33.5979003,23.2778571 33.5490814,22.8457292 33.3658793,22.5535937 L33.3564304,22.5388021 C33.3329134,22.5016116 33.3065617,22.4662701 33.2776903,22.4331473 C33.1674541,22.3099539 33.0264042,22.2187738 32.8692913,22.1690104 C32.8155381,22.1508378 32.7606824,22.1363631 32.7049869,22.125692 C32.6745407,22.1200394 32.6430446,22.1147567 32.6104987,22.1098437 C32.3910761,22.0802604 32.0855643,22.0712798 31.8183727,22.293683 L31.2230971,21.7257887 C31.5874016,21.2503423 32.047769,21.1753274 32.5753281,21.2471726 C32.6246719,21.2545685 32.6729659,21.2624926 32.72021,21.2720015 C32.8034646,21.2876912 32.8855118,21.3090335 32.9658793,21.3359226 C33.1891864,21.4054435 33.3897638,21.5342894 33.5464567,21.7088839 C33.5888714,21.7570097 33.6275066,21.8084107 33.6619423,21.8626116 C33.6276115,21.8002225 33.5879265,21.741003 33.5433071,21.6856399 C33.408399,21.5150074 33.1574803,21.2830952 32.7034121,21.1018973 Z M31.8356955,22.7437723 L31.9433071,22.6154018 C32.0918635,22.4379018 32.2729659,22.382433 32.5690289,22.4231101 C32.5947507,22.426808 32.6215223,22.430506 32.6461942,22.4357887 C32.6885039,22.4440298 32.7302362,22.454965 32.7711286,22.4685417 C32.875958,22.5005022 32.9701312,22.560567 33.0435696,22.6423438 C33.0628346,22.6630521 33.0803675,22.6853452 33.096063,22.7089063 L33.1018373,22.7178869 C33.2425197,22.941875 33.2782152,23.3153646 33.2068241,23.8272619 C33.1238845,24.4247396 32.9559055,24.8003423 32.7102362,24.9419196 C32.6992126,24.9482589 32.6871391,24.9540699 32.6724409,24.9609375 C32.6413123,24.9752537 32.6093963,24.9877738 32.5769029,24.9984449 C32.4924934,25.0203683 32.4050394,25.0280811 32.3181102,25.0211607 C32.287664,25.0211607 32.2551181,25.0164063 32.2209974,25.0116518 L32.0472441,24.9899926 L31.9422572,26.1907589 L31.912336,26.1875893 L31.8955381,26.1875893 C30.9942257,26.0581622 30.2451444,25.5441518 30.6020997,23.4933929 C30.7181102,22.826183 30.8713911,22.3433408 31.056168,21.9989063 L31.8356955,22.7437723 Z" id="Shape" fill="#04294F" fill-rule="nonzero"></path>
                    <path d="M31.3669291,18.8387723 C31.2146982,18.7811905 31.0519685,18.7267783 30.8713911,18.6771205 C30.6580577,18.6125655 30.4398425,18.5655491 30.2188976,18.5365997 L30.1564304,18.5281473 C30.1779528,14.7515179 27.1496063,10.6262277 20.2104987,8.56279018 C13.5207349,6.57383929 10.0167979,7.0434747 8.18897638,7.86494048 C7.44041995,8.20092262 7.27926509,8.51894345 7.27926509,8.51894345 L7.27926509,8.51894345 C7.5991601,8.37409077 7.92708661,8.24799182 8.26141732,8.14122768 L8.27296588,8.13700149 C8.85296588,7.95379613 9.44692913,7.81866369 10.0488189,7.73287202 C11.0425197,7.6103125 12.3700787,7.59869048 14.2624672,7.8221503 L14.3107612,7.82796131 C14.9616798,7.8966369 15.6090814,7.99188467 16.2530184,8.11375744 C17.3704987,8.32570089 18.4747507,8.60320313 19.560105,8.94473214 C20.6336483,9.27559003 21.6796325,9.69123586 22.688189,10.1877604 C23.6828346,10.6744591 24.628399,11.2566696 25.511811,11.9263095 C26.3805774,12.590878 27.1669291,13.345253 27.8047244,14.1820387 C28.1193176,14.5930885 28.3968504,15.0315558 28.6341207,15.4921577 C28.8624147,15.9370699 29.0416273,16.4058073 29.1685039,16.8899702 C29.3074541,17.4159725 29.371601,17.9591964 29.3590551,18.5033185 C28.096063,18.6089732 27.111811,19.5508854 26.567979,22.6766815 C26.0026247,25.9218676 26.9396325,27.0819568 28.2666667,27.4961235 C28.408399,27.539442 28.5524934,27.5747307 28.6981627,27.6017783 C28.7322835,27.6086458 28.7658793,27.6149851 28.8,27.6207961 C29.7874016,27.7956548 30.6692913,27.6799628 31.2761155,27.489256 C30.9933333,27.5589353 30.7014173,27.5837113 30.4110236,27.562686 C30.3060367,27.5563467 30.2010499,27.545253 30.0908136,27.5304613 C28.5427822,27.3191518 27.2472441,26.4522545 27.8587927,22.9344792 C28.4703412,19.4167039 29.6834646,18.897939 31.2314961,19.1108333 C31.4573228,19.1398356 31.6799475,19.1898631 31.8965879,19.2603348 C32.3753281,19.418817 32.7889764,19.696689 33.0829396,20.1584003 C32.9900262,19.9877679 32.7595801,19.6216741 32.2257218,19.2650893 C31.956273,19.0910231 31.668189,18.9480193 31.3669291,18.8387723 Z" id="Path" fill="#04294F" fill-rule="nonzero"></path>
                    <ellipse id="Oval" fill="#04294F" fill-rule="nonzero" cx="7.63937008" cy="10.8808557" rx="1" ry="1"></ellipse>
                    <ellipse id="Oval" fill="#04294F" fill-rule="nonzero" cx="29.2104987" cy="23.8938244" rx="1" ry="1"></ellipse>
                    <ellipse id="Oval" fill="#04294F" fill-rule="nonzero" cx="29.1291339" cy="24.9582961" rx="1" ry="1"></ellipse>
                    <path d="M8.25616798,9.74823601 C8.10251969,9.74791964 7.97774278,9.87306771 7.97742722,10.0276935 C7.97711286,10.1823192 8.10146982,10.3078899 8.25511811,10.3082074 C8.4087664,10.3085238 8.53354331,10.1833757 8.53385827,10.02875 C8.53385827,10.0283802 8.53385827,10.0280632 8.53385827,10.0276935 C8.53385827,9.87333185 8.40955381,9.74823601 8.25616798,9.74823601 C8.25616798,9.74823601 8.25616798,9.74823601 8.25616798,9.74823601 Z" id="Path" fill="#04294F" fill-rule="nonzero"></path>
                    <path d="M15.4125984,21.0078646 C15.4262467,21.0331689 15.4439895,21.0560432 15.4650919,21.0754836 C15.5710236,21.1672976 15.7308136,21.1557284 15.8225722,21.0495982 L15.8362205,21.0332217 C15.9175853,20.9353326 15.9847769,20.8262969 16.0356955,20.7093899 C16.0824672,20.6049501 16.1195801,20.4963371 16.1464567,20.3850298 C16.1743307,20.2729829 16.191916,20.1585588 16.1989501,20.0432366 C16.2026247,19.9821682 16.2026247,19.920994 16.1989501,19.8599256 C16.1962205,19.7938385 16.1861942,19.7282798 16.1690289,19.6644643 L16.1532808,19.6116369 C16.1457218,19.5887098 16.1349081,19.5670506 16.1212598,19.5471875 C16.0445144,19.4350878 15.8920735,19.4067195 15.7805774,19.4837946 C15.7180052,19.5267961 15.6610499,19.5775632 15.6110236,19.634881 C15.5646719,19.6870744 15.5232021,19.743494 15.4871391,19.8034003 C15.4170079,19.9201488 15.3649344,20.0469874 15.3328084,20.1795313 C15.2986877,20.3125506 15.2857218,20.4502188 15.2944882,20.5873586 C15.3016273,20.734747 15.3420472,20.8785432 15.4125984,21.0078646 Z" id="Path" fill="#FFB400" fill-rule="nonzero"></path>
                    <path d="M26.503937,16.5133176 L26.5133858,16.5133176 C27.7028871,16.4435789 28.6446194,16.3305283 28.6540682,16.3294717 C28.7410499,16.3191176 28.8032021,16.2397708 28.7929134,16.1522359 C28.7826247,16.0647009 28.7037795,16.0021533 28.6167979,16.0125074 C28.607874,16.0125074 27.7307087,16.1181622 26.6020997,16.1884226 C26.4272966,15.818631 25.7590551,14.5539435 24.3973753,13.4413988 C25.0583727,13.2538616 25.744042,13.1697604 26.4304462,13.1920536 L26.4351706,13.1920536 C26.5221522,13.1932158 26.5935958,13.1232195 26.5947507,13.0356845 C26.5959055,12.9481496 26.5263517,12.8762515 26.4393701,12.8750893 C25.0020997,12.8354688 24.0498688,13.2216369 24.0099738,13.2380134 C23.9295013,13.271189 23.8910236,13.3637954 23.9239895,13.4447798 C23.9346982,13.4710878 23.9522835,13.4940149 23.9748031,13.511131 C25.6488189,14.7837426 26.3506562,16.4002604 26.3574803,16.4166369 C26.3823622,16.4757507 26.4401575,16.5138921 26.503937,16.5133176 Z" id="Path" fill="#04294F" fill-rule="nonzero"></path>
                    <path d="M17.0603675,14.6796726 C17.1537533,14.4127359 17.2685564,14.1539345 17.4036745,13.9057515 C17.4467192,13.8296801 17.3863517,13.7662872 17.3107612,13.7229688 C17.2351706,13.6796503 17.1732283,13.6727827 17.1301837,13.7488542 C16.9828871,14.0185379 16.8580577,14.3000022 16.7569554,14.5903943 L17.0603675,14.6796726 Z" id="Path" fill="#FF3A00" fill-rule="nonzero"></path>
                    <path d="M18.5947507,14.255997 C18.6377953,14.1799256 18.5779528,14.1165327 18.5023622,14.0732143 C18.4267717,14.0298958 18.3643045,14.0230283 18.3212598,14.0990997 C18.1744357,14.3679382 18.0499213,14.6485045 17.9490814,14.9379985 L18.2535433,15.0251637 C18.3464042,14.7599174 18.4605249,14.5027009 18.5947507,14.255997 Z" id="Path" fill="#FF3A00" fill-rule="nonzero"></path>
                    <path d="M19.8041995,14.6062426 C19.8472441,14.5301711 19.7868766,14.4667783 19.7112861,14.4234598 C19.6356955,14.3801414 19.5737533,14.3732738 19.5307087,14.4493452 C19.3858268,14.7157537 19.2628871,14.9936786 19.1632546,15.2803199 L19.4682415,15.365372 C19.5596325,15.1036124 19.6719685,14.849724 19.8041995,14.6062426 Z" id="Path" fill="#FF3A00" fill-rule="nonzero"></path>
                    <path d="M32.2792651,24.3919866 L32.2834646,24.3919866 L32.335958,24.3967411 C32.3849869,24.400439 32.4342782,24.3960015 32.4818898,24.3835342 L32.4818898,24.3835342 C32.5014698,24.3765082 32.5190026,24.3696406 32.5343832,24.3629315 L32.5564304,24.3518378 C32.6808399,24.2799926 32.7784777,24.113058 32.8251969,23.7786607 C32.8635171,23.4992039 32.8346457,23.3222321 32.7648294,23.2118229 L32.7648294,23.2118229 C32.7555381,23.1970313 32.7449869,23.1830848 32.7333333,23.1700893 C32.6909186,23.122439 32.6365354,23.0872031 32.575853,23.0681324 C32.5539108,23.060631 32.5314436,23.0548199 32.5086614,23.0506994 L32.4692913,23.0438318 C32.2209974,23.0100223 32.0262467,23.0934896 31.928084,23.6571577 C31.8299213,24.2208259 32.0330709,24.3565923 32.2792651,24.3919866 Z" id="Path" fill="#04294F" fill-rule="nonzero"></path>
                    <path d="M37.9223097,11.1729911 C37.8640945,11.0093847 37.7749606,10.858721 37.6598425,10.7292411 C37.5540682,10.6051496 37.435643,10.4925216 37.3065617,10.3932589 C37.1801575,10.295317 37.0466142,10.2069896 36.9070866,10.129122 C36.6287139,9.96921354 36.3256168,9.8574308 36.0104987,9.79842262 C35.843622,9.76720164 35.6725984,9.76503571 35.5049869,9.79208333 C35.4138058,9.80840699 35.3261942,9.84073735 35.2461942,9.88770089 C35.2356955,9.89404018 35.2257218,9.90196429 35.215748,9.90936012 C35.1451969,9.95759152 35.087979,10.0230446 35.0493438,10.0995387 C35.0223097,10.151151 35.0419948,10.2150722 35.0933333,10.2422783 C35.1070341,10.2495156 35.1220997,10.2536362 35.1375328,10.2543229 C35.1685564,10.2569115 35.1991601,10.2455007 35.2209974,10.2231548 L35.2288714,10.2157589 C35.3137008,10.1381555 35.4263517,10.0988519 35.5406824,10.1069345 C35.6731234,10.1091533 35.8047244,10.1293862 35.9317585,10.1671577 C36.2016273,10.2475082 36.4615748,10.3584457 36.7065617,10.4978571 C36.9527034,10.632567 37.1818373,10.7966488 37.3889764,10.9865104 C37.4851444,11.0745208 37.5669816,11.1772173 37.6314961,11.2907961 C37.6917585,11.3873118 37.7061942,11.5058036 37.6708661,11.6140997 L37.6677165,11.6230804 C37.660105,11.6456905 37.660105,11.6702024 37.6677165,11.6928125 C37.6742257,11.7135737 37.6866142,11.7319576 37.7034121,11.7456399 C37.7507087,11.7817738 37.8181102,11.772529 37.8540682,11.7250372 C37.9136483,11.6470112 37.9500262,11.5536124 37.9590551,11.4556176 C37.9600525,11.438026 37.9600525,11.4203817 37.9590551,11.4027902 C37.9586877,11.3247641 37.9462992,11.2472135 37.9223097,11.1729911 Z" id="Path" fill="#04294F" fill-rule="nonzero"></path>
                    <path d="M37.9291339,10.3229985 C37.700105,10.0707478 37.4307612,9.85880432 37.1322835,9.6959375 C36.8380577,9.52799926 36.5190551,9.40834524 36.1874016,9.34146577 C36.0145407,9.3065997 35.8370604,9.30142262 35.6624672,9.32614583 C35.6227822,9.33327753 35.5835171,9.34262798 35.5448819,9.35414435 C35.4937533,9.36935863 35.4445669,9.39064807 35.3984252,9.4175372 C35.3130709,9.46587426 35.2430446,9.53745536 35.1963255,9.62409226 C35.1753806,9.6631317 35.1898163,9.71183854 35.2286089,9.73291667 C35.2451969,9.74195015 35.2644619,9.74475 35.2829396,9.74084077 C35.3005249,9.73745982 35.3164829,9.7281622 35.328084,9.71442708 L35.3312336,9.71125744 C35.423937,9.61236458 35.5542257,9.55816369 35.6892388,9.56228423 C35.8372703,9.5595372 35.9849344,9.57839658 36.1275591,9.61828125 C36.2761155,9.65732068 36.4215748,9.70745387 36.5627297,9.76831101 C36.7068766,9.82763616 36.8471391,9.89610045 36.9826772,9.97328125 C37.1186877,10.0477679 37.2500262,10.1307068 37.375853,10.2215699 C37.5006824,10.3102671 37.6184777,10.4086317 37.728084,10.5158185 C37.8342782,10.6167188 37.9229921,10.7347351 37.9905512,10.8650074 C38.0570604,10.9823371 38.0663517,11.1239144 38.015748,11.2490625 L38.015748,11.2527604 C38.0061942,11.2747366 38.0074016,11.2999353 38.0188976,11.3209077 C38.024357,11.3327939 38.0326509,11.3431481 38.0430446,11.3510193 C38.0793701,11.3763765 38.1291339,11.36766 38.1548556,11.3314732 C38.2113911,11.2514926 38.2448294,11.1573542 38.2514436,11.0594122 C38.256063,10.9896272 38.2497113,10.9195781 38.2325459,10.8518006 C38.2262467,10.8264435 38.2194226,10.7989732 38.2110236,10.7767857 C38.1467717,10.6087418 38.0510761,10.4546972 37.9291339,10.3229985 Z" id="Path" fill="#04294F" fill-rule="nonzero"></path>
                    <path d="M16.887664,3.62924107 C16.9800525,3.5609881 17.096063,3.53372917 17.2089239,3.55369792 C17.3403675,3.57002158 17.4690814,3.60393676 17.591601,3.65459821 C17.8511811,3.76310565 18.0976903,3.90077381 18.3265092,4.06506696 C18.5580052,4.22486979 18.7695013,4.41219568 18.9564304,4.62292411 C19.0429921,4.72060193 19.1138058,4.8312753 19.1664042,4.95098214 C19.2164829,5.05336161 19.2185827,5.17285714 19.1721785,5.27692708 L19.167979,5.28537946 C19.1493438,5.3276942 19.1587927,5.37714063 19.191601,5.40952381 C19.2328084,5.45057068 19.2992651,5.45020089 19.3400525,5.4087314 C19.3411549,5.40762202 19.3422572,5.40645982 19.3433071,5.40529762 C19.4100787,5.33361086 19.4553806,5.24443824 19.4740157,5.14802827 C19.4740157,5.13376488 19.4782152,5.12002976 19.47979,5.10576637 C19.4893963,5.02525744 19.4856693,4.94363914 19.4687664,4.86434524 C19.4284514,4.69566741 19.355853,4.53655134 19.2551181,4.39576637 C19.1630446,4.26195461 19.0574803,4.13802158 18.9401575,4.0259747 C18.8253018,3.91524851 18.7024672,3.81318601 18.5727034,3.72063244 C18.3112861,3.53225 18.0202625,3.38940476 17.711811,3.29801339 C17.5489764,3.24951786 17.3790551,3.2293378 17.2094488,3.23831845 C17.1199475,3.24481622 17.032231,3.26679241 16.9501312,3.30329613 L16.9422572,3.30646577 C16.8530184,3.34745982 16.7773753,3.41349405 16.7244094,3.49664435 C16.6857218,3.54038542 16.6896063,3.60747619 16.7330709,3.64640997 C16.7765354,3.68534375 16.8432021,3.68143452 16.8818898,3.63769345 L16.887664,3.62924107 Z" id="Path" fill="#04294F" fill-rule="nonzero"></path>
                    <path d="M17.0435696,3.13794643 C17.1391076,3.04602679 17.2729659,3.0175 17.4152231,3.0275372 C17.5626772,3.04058557 17.7074541,3.07492336 17.8451444,3.12949405 C17.9887664,3.18417039 18.1282415,3.24930655 18.2624672,3.32442708 C18.3983727,3.39923065 18.5298163,3.48195833 18.656168,3.5721875 C18.7845144,3.66051488 18.9072441,3.75687202 19.023622,3.860625 C19.1388451,3.96184226 19.2458793,4.07204018 19.343832,4.19026786 C19.4393176,4.30178646 19.5155906,4.42851935 19.5695538,4.56534226 C19.623727,4.68901116 19.6181102,4.83095833 19.5543307,4.9499256 L19.5543307,4.95309524 C19.5401575,4.97776563 19.5401575,5.0081942 19.5543307,5.03286458 C19.5585302,5.04078869 19.564042,5.04792039 19.5706037,5.05399554 C19.604042,5.08331473 19.6548031,5.07982813 19.683937,5.04617708 C19.683937,5.04612426 19.6839895,5.04612426 19.6839895,5.04607143 C19.7485564,4.97248289 19.791601,4.88235938 19.808399,4.78563244 C19.8168504,4.7375067 19.8198425,4.68858854 19.8173228,4.63982887 C19.8147507,4.59286533 19.8080315,4.54616592 19.7973753,4.50036458 C19.7522835,4.32703795 19.6745932,4.16401265 19.5685039,4.02016369 C19.3668241,3.74525 19.1208924,3.5062061 18.8409449,3.31280506 C18.5652493,3.11470238 18.2599475,2.96203125 17.9364829,2.86060268 C17.768399,2.80793378 17.5927034,2.78416146 17.4167979,2.79034226 C17.3791076,2.79277232 17.3415748,2.79752679 17.3044619,2.80460565 C17.2493438,2.81422024 17.1955906,2.8305439 17.144357,2.85320685 C17.0544357,2.89214063 16.9773753,2.95611458 16.9223097,3.0375744 C16.9011024,3.06890104 16.904357,3.11084598 16.9301837,3.1384747 C16.956063,3.16557515 16.9972703,3.17064658 17.0288714,3.150625 C17.0342257,3.14798363 17.0393176,3.14476116 17.0440945,3.14111607 L17.0435696,3.13794643 Z" id="Path" fill="#04294F" fill-rule="nonzero"></path>
                    <path d="M19.8115486,2.1199628 C19.840105,2.1361808 19.876273,2.12603795 19.892336,2.09729985 C19.892336,2.09729985 19.892336,2.09724702 19.8923885,2.09724702 L20.3674541,1.24302827 L20.8551181,1.57214286 L20.8871391,1.59433036 C20.9089239,1.60901637 20.9330709,1.61974033 20.9585302,1.62602679 C21.0832021,1.65835714 21.2102887,1.58286682 21.2424147,1.45745461 C21.2424672,1.45729613 21.2425197,1.45713765 21.2425197,1.45697917 L21.5816273,0.124672619 C21.5930709,0.0976778274 21.5806299,0.0664568452 21.5538058,0.0549404762 C21.5269816,0.0434241071 21.495958,0.0559441964 21.4845144,0.0829389881 L20.9249344,0.983645833 L20.4267717,0.646607143 L20.3931759,0.623891369 C20.367664,0.606986607 20.3391601,0.595153274 20.3091864,0.589025298 C20.1823622,0.56377381 20.0592126,0.646818452 20.0341207,0.774449405 L19.7811024,2.05604167 C19.7762205,2.0817686 19.7885564,2.10770685 19.8115486,2.1199628 Z" id="Path" fill="#FFB400" fill-rule="nonzero"></path>
                    <path d="M18.8020997,1.88646577 C18.8135958,1.91066071 18.8424147,1.92090923 18.8665092,1.90934003 C18.8832021,1.90131027 18.8938583,1.88445833 18.8939633,1.8658631 L18.8965879,1.31223214 L19.1065617,1.21661458 L19.1433071,1.19970982 C19.2228871,1.16315327 19.2595276,1.06980729 19.2262467,0.988400298 L18.9354331,0.269419643 C18.9272441,0.246968006 18.9025722,0.23539881 18.88021,0.243639881 C18.8634646,0.249820685 18.852231,0.265721726 18.8519685,0.283683036 L18.8215223,0.882217262 L18.6057743,0.98047619 L18.5674541,0.9984375 L18.5674541,0.9984375 C18.4856168,1.0372128 18.4504987,1.1354189 18.4890289,1.21777679 C18.4890814,1.21793527 18.4891864,1.21804092 18.4892388,1.2181994 L18.8020997,1.88646577 Z" id="Path" fill="#FFB400" fill-rule="nonzero"></path>
                    <path d="M21.2887139,2.5536756 L21.2677165,2.5172247 L21.2677165,2.5172247 C21.2199475,2.43993824 21.1189501,2.41621875 21.0421522,2.46429167 C21.0420997,2.46434449 21.0420472,2.46434449 21.0419948,2.46439732 L20.416273,2.84845238 C20.4009974,2.85880655 20.392231,2.87645089 20.3931759,2.89494048 C20.395958,2.92140699 20.4193176,2.94074182 20.4456693,2.93825893 L20.9931759,2.88543155 L21.1097113,3.08511905 L21.1307087,3.12051339 C21.1751706,3.19589807 21.2707087,3.22268155 21.3475066,3.18126488 L22.0299213,2.81464286 C22.0448819,2.8068244 22.0539108,2.79092336 22.0530184,2.77396577 C22.051601,2.74992932 22.0312336,2.73154539 22.0073491,2.73276042 L21.4125984,2.76498512 L21.2887139,2.5536756 Z" id="Path" fill="#FFB400" fill-rule="nonzero"></path>
                    <path d="M37.6866142,8.6108631 C37.716168,8.6243869 37.7510236,8.61128571 37.7644619,8.5815439 C37.7645669,8.58127976 37.7646719,8.58101563 37.7648294,8.58075149 L38.1622047,7.6869122 L38.6776903,7.97006696 L38.711811,7.98908482 C38.8249869,8.05084003 38.9664567,8.0085253 39.027769,7.89468229 C39.040315,7.87143824 39.0488189,7.84618676 39.0530184,7.8200372 L39.2708661,6.46237351 C39.2798425,6.43453348 39.2646719,6.40458036 39.2370079,6.39554688 C39.2093438,6.38651339 39.1795801,6.40178051 39.1706037,6.42962054 L39.1706037,6.42962054 L38.6944882,7.37734375 L38.1695538,7.08732143 L38.1343832,7.06830357 C38.1076115,7.05361756 38.0781102,7.0444256 38.047769,7.04136161 C37.9192126,7.02762649 37.8038845,7.12134226 37.7902362,7.25076935 C37.7901837,7.25140327 37.7900787,7.2520372 37.7900262,7.25267113 L37.6540682,8.5522247 C37.6517585,8.57668378 37.6647244,8.60003348 37.6866142,8.6108631 Z" id="Path" fill="#FFB400" fill-rule="nonzero"></path>
                    <path d="M36.6603675,8.46928571 C36.6695013,8.48539807 36.6871391,8.49469568 36.7055118,8.49305804 C36.7320735,8.49083929 36.7518635,8.4673311 36.7496588,8.44060045 C36.7496588,8.44049479 36.7496588,8.44033631 36.7496063,8.44023065 L36.7023622,7.8887128 L36.9023622,7.77407738 L36.9380577,7.75400298 C37.0138058,7.71036756 37.0418373,7.61432738 37.0015748,7.53635417 L36.6467192,6.84695685 C36.6391076,6.8320067 36.6235171,6.82292039 36.6068241,6.8237128 C36.5830446,6.82455804 36.5645144,6.84463244 36.5653543,6.86856324 C36.5653543,6.86856324 36.5653543,6.86861607 36.5653543,6.86861607 L36.5889764,7.46767857 L36.3832021,7.58548363 L36.3464567,7.60661458 L36.3464567,7.60661458 C36.2685039,7.65283854 36.2425722,7.75384449 36.2884514,7.83229315 C36.2885564,7.83245164 36.2886089,7.83255729 36.2887139,7.83271577 L36.6603675,8.46928571 Z" id="Path" fill="#FFB400" fill-rule="nonzero"></path>
                    <path d="M39.9244094,9.01446429 L39.3349081,9.10057292 L39.1968504,8.9072247 L39.1721785,8.87235863 L39.1721785,8.87235863 C39.1180052,8.79945685 39.0154856,8.78434821 38.9427822,8.83854911 L38.3538058,9.27860119 C38.332336,9.29402679 38.3274016,9.32408557 38.3427297,9.34569196 C38.3538058,9.36127604 38.3729659,9.3687247 38.391601,9.36470982 L38.9317585,9.25905506 L39.0656168,9.44712054 L39.0897638,9.48093006 C39.1408399,9.55203571 39.2385302,9.5699442 39.3112861,9.52160714 L39.9553806,9.09423363 C39.9693438,9.08509449 39.9767454,9.06855952 39.9742782,9.05197173 C39.9714436,9.0281994 39.9499738,9.01129464 39.9263517,9.01420015 C39.9257218,9.01425298 39.9250919,9.01435863 39.9244094,9.01446429 Z" id="Path" fill="#FFB400" fill-rule="nonzero"></path>
                    <path d="M4.79370079,10.5184598 C6.68346457,11.3779613 8.61102362,12.1439583 10.5606299,12.8470908 C12.5102362,13.5502232 14.4813648,14.1936607 16.4629921,14.8017039 C17.4533858,15.1045632 18.4481365,15.3944271 19.4472441,15.6712426 C19.6965879,15.741503 19.9469816,15.8080655 20.1968504,15.8762128 C20.3238845,15.9089658 20.4425197,15.9464732 20.5643045,15.9818676 C20.6860892,16.0172619 20.8036745,16.0626935 20.9223097,16.1049554 C21.8730184,16.457314 22.7047769,17.0741793 23.3207349,17.8836533 C23.6244094,18.2892619 23.876378,18.7315327 24.0708661,19.2001116 C24.1154856,19.3189732 24.1669291,19.4357217 24.2047244,19.5566964 L24.2661417,19.7373661 L24.3186352,19.9201488 L24.3454068,20.0120685 L24.367979,20.1045164 L24.4131234,20.2899405 L24.4509186,20.4769494 C24.464042,20.5392857 24.4761155,20.601622 24.4850394,20.6644866 L24.5149606,20.8530804 L24.5370079,21.0427307 L24.5480315,21.1372917 L24.5553806,21.232381 L24.5695538,21.4230878 C24.5832021,21.6768177 24.5832021,21.9311287 24.5695538,22.1848586 C24.5549606,22.4380074 24.5244094,22.6899412 24.4782152,22.9392336 C24.4301312,23.1862545 24.3641995,23.4293661 24.2808399,23.6666667 C24.1118635,24.1447016 23.8825197,24.5988586 23.5984252,25.0179911 C23.456063,25.2286667 23.3007349,25.4301503 23.1333333,25.6212798 C22.9660892,25.8112999 22.7880315,25.9914412 22.6,26.1606473 C22.2216798,26.4971049 21.8024147,26.7837991 21.352231,27.0138095 C20.4535433,27.4786905 19.4362205,27.6878869 18.424147,27.6831324 C17.9156955,27.678378 17.4087664,27.6252865 16.9102362,27.5246503 C16.7847769,27.5014062 16.6593176,27.4718229 16.5338583,27.444881 C16.408399,27.417939 16.2829396,27.3920536 16.1580052,27.3603571 C15.9086614,27.2974926 15.6577428,27.2409673 15.4094488,27.1707068 C14.4120735,26.9039286 13.4283465,26.5948884 12.4503937,26.2636607 C11.4724409,25.932433 10.5034121,25.5705655 9.54225722,25.1923214 C8.58110236,24.8140774 7.62624672,24.4162872 6.6855643,23.9883854 C5.74488189,23.5604836 4.81364829,23.1109226 3.90341207,22.6243824 L3.90341207,22.6243824 C3.85753281,22.6000818 3.8007874,22.6172507 3.77585302,22.6629464 C3.76388451,22.6851339 3.76125984,22.7111778 3.76850394,22.7353199 C3.77532808,22.7598318 3.79181102,22.7804345 3.81417323,22.7923735 C4.72545932,23.2905357 5.65564304,23.752247 6.59632546,24.190186 C7.53700787,24.628125 8.48766404,25.0401786 9.4488189,25.4289881 C10.4099738,25.8177976 11.3816273,26.1833631 12.3627297,26.5214583 C13.343832,26.8595536 14.3322835,27.1765179 15.3349081,27.450692 C15.584252,27.5225372 15.8383202,27.5817039 16.0897638,27.6466815 C16.215748,27.6799628 16.3433071,27.7058482 16.4703412,27.7349033 C16.5973753,27.7639583 16.7244094,27.7930134 16.8530184,27.8178423 C17.3694488,27.9228631 17.8946457,27.9782262 18.4215223,27.983192 C19.2794751,27.9946027 20.131811,27.8429881 20.9338583,27.5362723 C21.1668766,27.9399792 21.4812073,28.290119 21.8566929,28.5642932 L21.9275591,28.6123661 L22.0062992,28.5780283 C22.5353806,28.3478065 23.0330184,28.0504412 23.4871391,27.6931696 C23.67979,27.9514955 24.1417323,28.5072396 24.7994751,28.9008036 C24.823727,28.9154896 24.8514961,28.9229935 24.87979,28.9229935 C24.9667717,28.9227798 25.0371129,28.8516213 25.0368511,28.7640863 C25.0368511,28.7086704 25.0078215,28.6573222 24.9606299,28.6287426 C24.3459318,28.2589509 23.9049869,27.7232812 23.7317585,27.491369 C23.8755906,27.3666964 24.015748,27.2362128 24.151706,27.0988616 L24.264042,26.9842262 L24.1485564,26.8732887 C24.1433071,26.868006 23.6393701,26.3788244 23.3212598,25.8759077 C23.335958,25.859003 23.351706,25.8426265 23.3664042,25.8230804 C23.5419948,25.6222307 23.7048819,25.4105513 23.8540682,25.1891518 C24.1536483,24.7497336 24.3962205,24.2736004 24.575853,23.7723214 C24.6644619,23.5192783 24.7345932,23.2601071 24.7858268,22.9968155 C24.8350131,22.735003 24.8676115,22.4703378 24.8834646,22.2044048 C24.8976378,21.9383661 24.8976378,21.6716935 24.8834646,21.4056548 L24.8682415,21.2064955 L24.8603675,21.1071801 L24.8488189,21.0083929 L24.8246719,20.8102902 L24.7931759,20.613244 C24.783727,20.5472098 24.7711286,20.4822321 24.7574803,20.4167262 L24.7175853,20.2212649 L24.6698163,20.0279167 L24.6456693,19.9307143 L24.6178478,19.8350967 L24.5616798,19.6438616 L24.4971129,19.4547396 C24.4572178,19.3279539 24.4031496,19.2059226 24.3559055,19.08125 C24.1502362,18.5883705 23.883937,18.1233839 23.5632546,17.6971726 C23.2373753,17.2735499 22.8549081,16.8972076 22.4267717,16.578817 C21.9976378,16.2629092 21.5267717,16.0088095 21.0278215,15.8239137 C20.9028871,15.7795387 20.7795276,15.729881 20.6519685,15.6955432 C20.5244094,15.6612054 20.3968504,15.6184152 20.2734908,15.5867188 L19.8183727,15.4641592 C19.9034646,15.2233192 20.007769,14.9897693 20.1301837,14.7657812 C20.2593176,14.537567 20.1464567,14.2808259 19.92021,14.1503423 C19.6939633,14.0198586 19.4388451,14.0663467 19.3097113,14.2940327 C19.1493438,14.587753 19.0138058,14.8945744 18.9044619,15.2111161 L18.6047244,15.1265923 C18.6906562,14.8814732 18.7960105,14.6436972 18.919685,14.4155357 C19.0493438,14.1873214 18.9364829,13.9305804 18.7097113,13.8000967 C18.4829396,13.6696131 18.2288714,13.7161012 18.0992126,13.9437872 C17.9382152,14.2392507 17.8021522,14.5478155 17.6923885,14.8661533 L17.4099738,14.7842708 C17.4968504,14.5362991 17.603622,14.2958817 17.7291339,14.0652902 C17.8582677,13.8370759 17.7454068,13.5803348 17.5191601,13.4498512 C17.2929134,13.3193676 17.0377953,13.3658557 16.9086614,13.5935417 C16.7471916,13.8892165 16.6109186,14.1980982 16.5013123,14.5169643 C14.5343832,13.9274107 12.5779528,13.3019345 10.6414698,12.6151786 C10.2855643,12.490506 9.93018373,12.3637202 9.57532808,12.2348214 C9.71076115,11.9479688 10.3102362,10.771503 11.4272966,9.81532738 C11.4936483,9.75874926 11.5019423,9.65874702 11.4457218,9.59197321 C11.4257218,9.56820089 11.3992651,9.55092634 11.3695538,9.54220982 L10.2923885,9.22524554 C10.9811024,8.66421875 11.855643,8.19088542 12.9286089,8.0339881 C13.0151706,8.0253244 13.0783727,7.94772098 13.0697638,7.86060863 C13.0611549,7.77349628 12.984042,7.70989211 12.8974803,7.7185558 C12.8925984,7.71903125 12.887769,7.71977083 12.8829396,7.72072173 C11.6026247,7.90720238 10.6005249,8.51894345 9.86981627,9.16449405 C9.86026247,9.17109747 9.85165354,9.17891592 9.84409449,9.1877381 C9.59942257,9.40628497 9.36955381,9.64099702 9.15590551,9.89034226 C8.69727034,10.4216801 8.31165354,11.01266 8.00944882,11.647381 C6.95223097,11.2395536 5.9048294,10.8072671 4.8671916,10.3504688 L4.8671916,10.3504688 C4.82136483,10.3299717 4.76771654,10.3507857 4.74734908,10.396904 C4.73742782,10.4193557 4.73690289,10.4449241 4.74593176,10.4677455 C4.75475066,10.49025 4.77186352,10.5084226 4.79370079,10.5184598 Z M23.8146982,26.9868676 C23.2758005,27.5133981 22.6496063,27.9410357 21.9643045,28.2504985 C21.671916,28.0170543 21.4230971,27.7332128 21.2293963,27.412128 C21.3175853,27.3719792 21.4047244,27.3307738 21.4918635,27.2863988 C21.9651444,27.0451362 22.4061417,26.7444427 22.8041995,26.391503 C22.9044619,26.3006399 23.0026247,26.208192 23.0976378,26.1125744 C23.3114436,26.4240446 23.5513386,26.7165499 23.8146982,26.9868676 Z M19.5307087,14.4493452 C19.5737533,14.3732738 19.6356955,14.3801414 19.7112861,14.4234598 C19.7868766,14.4667783 19.8472441,14.5291146 19.8041995,14.6062426 C19.6712336,14.8496711 19.5582152,15.1035067 19.4661417,15.365372 L19.160105,15.2803199 C19.2607874,14.9935729 19.3847244,14.7156481 19.5307087,14.4493452 Z M18.3233596,14.0990997 C18.3664042,14.0230283 18.4283465,14.0298958 18.5044619,14.0732143 C18.5805774,14.1165327 18.639895,14.178869 18.5968504,14.255997 C18.4626247,14.5027009 18.3485039,14.7599174 18.255643,15.0251637 L17.9511811,14.9379985 C18.0510236,14.6486101 18.1744357,14.3680439 18.32021,14.0990997 L18.3233596,14.0990997 Z M17.1328084,13.7488542 C17.175853,13.6727827 17.2377953,13.6796503 17.3133858,13.7229688 C17.3889764,13.7662872 17.4493438,13.8286235 17.4062992,13.9057515 C17.2702887,14.1538289 17.1545932,14.412683 17.0603675,14.6796726 L16.7569554,14.5903943 C16.8582152,14.2999494 16.9832546,14.0184851 17.1307087,13.7488542 L17.1328084,13.7488542 Z M10.0099738,9.46983631 L11.0104987,9.76355655 C10.2922835,10.4348869 9.7048294,11.2351689 9.27821522,12.1233557 C8.95343832,12.0039658 8.62939633,11.8826213 8.30603675,11.759375 C8.72845144,10.8979189 9.30540682,10.1224129 10.007874,9.4719494 L10.0099738,9.46983631 Z" id="Shape" fill="#04294F" fill-rule="nonzero"></path>
                    <path d="M0.539632546,21.7046577 C0.506351706,21.7181287 0.474068241,21.7340298 0.443044619,21.7522024 C0.411023622,21.7698996 0.380682415,21.7903966 0.352230971,21.8134821 C0.290708661,21.8600231 0.240892388,21.9204576 0.206824147,21.9899256 C0.185616798,22.0291235 0.199947507,22.0782001 0.238897638,22.0995952 C0.265249344,22.1140699 0.297427822,22.1125379 0.322309711,22.0955804 L0.33648294,22.0865997 C0.425564304,22.0323988 0.523779528,21.9951555 0.626246719,21.9767188 C0.734698163,21.9548482 0.844829396,21.9422753 0.955380577,21.9392113 C1.06666667,21.9353021 1.17811024,21.9398981 1.28871391,21.9529464 C1.39910761,21.9658363 1.50766404,21.9917217 1.61207349,22.0300744 L1.61784777,22.0300744 C1.66031496,22.0457641 1.70734908,22.0237879 1.72293963,21.9811034 C1.73307087,21.9533162 1.72761155,21.9222537 1.70866142,21.8995908 C1.61328084,21.7928795 1.49023622,21.7151176 1.35328084,21.6750744 C1.22110236,21.6342388 1.08299213,21.6163832 0.94488189,21.622247 C0.806036745,21.6255751 0.668871391,21.653468 0.539632546,21.7046577 Z" id="Path" fill="#FFB400" fill-rule="nonzero"></path>
                </g>
            </g>
        </g>
    </g>
</svg>