<?xml version="1.0" encoding="UTF-8"?>
<svg width="96px" height="71px" viewBox="0 0 96 71" version="1.1" xmlns="http://www.w3.org/2000/svg" xmlns:xlink="http://www.w3.org/1999/xlink">
    <!-- Generator: sketchtool 57.1 (101010) - https://sketch.com -->
    <title>2D11311A-E8E2-4514-ABA7-9B5AE5AD4A52</title>
    <desc>Created with sketchtool.</desc>
    <g id="Page-1" stroke="none" stroke-width="1" fill="none" fill-rule="evenodd">
        <g id="Layout-Text" transform="translate(-260.000000, -10.000000)">
            <g id="Stacked-Group" transform="translate(260.000000, 10.000000)">
                <g id="flame-no-comments" transform="translate(48.000000, 35.500000) scale(-1, 1) translate(-48.000000, -35.500000) ">
                    <g id="Group">
                        <path d="M55.0248819,46.6989821 C54.1543307,44.6704107 52.7307087,42.813 50.6280315,41.5185179 C52.7307087,42.813 54.1543307,44.6742143 55.0248819,46.6989821 Z" id="Path"></path>
                        <path d="M19.8223622,19.5414821 L19.8500787,19.5313393 L19.8223622,19.5414821 Z" id="Path"></path>
                        <path d="M29.7070866,60.5173571 C25.9527559,59.2089286 21.9388976,57.6456607 18.2223622,56.0392857 C21.9388976,57.6456607 25.9527559,59.2089286 29.7070866,60.5173571 Z" id="Path"></path>
                        <path d="M44.5316535,5.71296429 C43.4291654,5.59023571 42.3285669,5.96108393 41.5218898,6.72725 C41.2700472,6.97105893 41.0518425,7.24783214 40.8730709,7.55008929 L40.8604724,7.55769643 C40.7924409,7.67433929 40.7344882,7.79605357 40.6727559,7.92030357 L40.6727559,7.92030357 C40.5448819,8.1925125 40.4521575,8.48018929 40.3968504,8.77610714 C40.3766929,8.88007143 40.360315,8.98530357 40.3489764,9.09307143 C40.2819528,9.70189643 40.3628346,10.3179482 40.5845669,10.8883571 C41.3089764,10.4065714 44.0365354,12.3730179 44.1007874,13.3201071 C44.7604409,13.3247982 45.4097638,13.1556661 45.984252,12.8294464 C46.2669606,12.6762893 46.5258583,12.4824339 46.7527559,12.2538393 L46.7527559,12.2538393 C46.8006299,12.2069286 46.8472441,12.15875 46.8938583,12.1080357 L46.920315,12.0801429 L46.920315,12.0801429 C47.1741732,11.7977911 47.3863307,11.4800661 47.5502362,11.1368571 C48.4420787,9.22759107 47.6270866,6.95216786 45.7297638,6.05465179 C45.3501732,5.87512321 44.943622,5.76000179 44.5266142,5.71423214 L44.5316535,5.71296429 Z" id="Path" fill="#FF3A00" fill-rule="nonzero"></path>
                        <path d="M42.927874,13.1286607 L42.927874,13.1286607 C43.183874,13.2142411 43.448315,13.2715482 43.7165354,13.2998214 C43.8470551,13.3145286 43.9783307,13.3217554 44.1096063,13.3213893 C44.0453543,12.3742857 41.3177953,10.4053036 40.5933858,10.889625 C40.7140787,11.2021518 40.8754646,11.4971821 41.0733858,11.7669821 C41.3870866,11.333375 43.2352756,12.7013929 42.927874,13.1286607 Z" id="Path" fill="#04294F" fill-rule="nonzero"></path>
                        <path d="M40.4724409,16.5290536 L42.927874,13.1286607 L42.927874,13.1286607 C43.2352756,12.7013929 41.3870866,11.333375 41.0696063,11.7669821 L41.0696063,11.7669821 L37.8494488,16.2285714 C38.3911811,16.2801732 38.9312756,16.3379875 39.4696063,16.4022679 C39.8110236,16.4390357 40.1385827,16.4821429 40.4724409,16.5290536 Z" id="Path" fill="#00AEE0" fill-rule="nonzero"></path>
                        <path d="M88.0907087,21.2226574 C87.0324409,21.2212661 86.0220472,21.6664107 85.3051969,22.4499464 C85.0471811,22.7227893 84.8343937,23.0358232 84.6752756,23.37675 L84.6752756,23.37675 C84.6125354,23.5082268 84.5573543,23.6432536 84.5102362,23.7811964 L84.5165354,23.7811964 C84.4207874,24.0506161 84.3557795,24.3300518 84.3225197,24.6141786 C84.3068976,24.7560518 84.2988346,24.8986857 84.2985746,25.0414464 C84.2973228,25.6542018 84.4438425,26.2580821 84.7256693,26.8012321 C85.3946457,26.243375 88.3174803,27.9017321 88.4825197,28.8298036 C89.1804724,28.7579161 89.8445354,28.4914125 90.4,28.0602143 C91.0840945,27.4427679 91.4166929,27.1245357 91.7467717,26.0417857 C92.2978268,24.0097911 91.1077795,21.9130089 89.0886299,21.3584482 C88.7642205,21.2693179 88.4294803,21.2240554 88.0932283,21.2239286 L88.0907087,21.2226574 Z" id="Path" fill="#FF3A00" fill-rule="nonzero"></path>
                        <path d="M84.7269291,26.7974286 C84.8806299,27.0951214 85.0730079,27.3710071 85.2988976,27.6177321 C85.5672441,27.1511607 87.5514961,28.31125 87.2919685,28.7689464 L87.2919685,28.7689464 C87.5545197,28.8257464 87.8222362,28.8541464 88.0907087,28.8538929 C88.2219843,28.8544 88.3532598,28.8471732 88.4837795,28.8323393 C88.3149606,27.8928571 85.3959055,26.2446429 84.7269291,26.7974286 Z" id="Path" fill="#04294F" fill-rule="nonzero"></path>
                        <path d="M5.49795276,46.3591964 C3.33858268,47.3595357 1.9703937,48.9304107 1.50047244,50.9425 C1.6936063,50.8467768 1.90311811,50.7887089 2.11779528,50.7713393 C2.5344252,50.7317821 2.95067717,50.8498196 3.28566929,51.10225 C3.96094488,48.8289821 6.17448819,47.76525 8.34015748,47.2758571 C8.19653543,46.709125 8.07685039,46.1347857 7.98740157,45.5363571 C7.1312126,45.7218446 6.29669291,45.9976036 5.49795276,46.3591964 Z" id="Path" fill="#FF3A00" fill-rule="nonzero"></path>
                        <path d="M7.02110236,51.2569286 L7.02110236,51.2569286 C7.02034646,51.2523643 7.02034646,51.2475464 7.02110236,51.2429821 C7.02047244,51.2475464 7.02047244,51.2523643 7.02110236,51.2569286 Z" id="Path" fill="#04294F" fill-rule="nonzero"></path>
                        <path d="M55.0248819,46.6989821 C54.1543307,44.6704107 52.7307087,42.813 50.6280315,41.5185179 C49.6486299,40.9207232 48.5874646,40.4705071 47.4784252,40.1821964 C41.3858268,38.561875 28.1814173,35.4049107 17.8507087,31.071375 C15.8248819,30.2219107 13.9086614,29.3280714 12.1814173,28.391125 C10.7351181,30.4285714 9.57480315,32.9135714 8.75086614,35.8930357 C7.76440945,39.4531786 7.55023622,42.65325 7.98740157,45.5363571 C8.07685039,46.1297143 8.19653543,46.709125 8.34015748,47.2758571 C8.62198425,48.3832036 9.01102362,49.4601214 9.50173228,50.4911429 C8.45984252,50.4328214 7.47590551,50.5405893 7.11559055,51.0692857 C7.30229921,50.8035429 7.6623622,50.7301339 7.93700787,50.9019286 C8.71685039,51.3799107 9.59244094,51.8756429 10.5423622,52.3827857 C12.7685039,53.5707679 15.4103937,54.8170714 18.2274016,56.0354821 C21.943937,57.6456607 25.9590551,59.205125 29.712126,60.5173571 C33.9086614,61.9817321 37.7751181,63.1329464 40.527874,63.687 C49.0822047,65.4138214 54.2601575,60.1446071 55.6762205,55.4142321 C56.3892913,53.01925 56.3074016,49.68225 55.0248819,46.6989821 Z" id="Path" fill="#04294F" fill-rule="nonzero"></path>
                        <path d="M54.7275591,63.3396071 C53.7722205,64.1866625 52.7138268,64.9083268 51.5779528,65.4873571 C51.3700787,65.5938571 51.1609449,65.69275 50.9480315,65.7891071 C51.4129134,66.5597107 52.0100787,67.2409304 52.711811,67.8011964 C54.3565354,67.0584857 55.8594016,66.0321554 57.1527559,64.7684821 C56.5210709,64.1197196 55.9457008,63.4177071 55.4330709,62.6701786 C55.2037795,62.8996607 54.968189,63.1215357 54.7275591,63.3396071 Z" id="Path" fill="#00AEE0" fill-rule="nonzero"></path>
                        <path d="M26.4201575,23.4376071 L24.0188976,22.7326786 C22.3324724,24.2953125 20.9477795,26.158175 19.9344882,28.2275714 C20.7105512,28.52425 21.488252,28.8154768 22.2677165,29.101125 C23.2900787,26.9699839 24.6982047,25.0493071 26.4201575,23.4376071 Z" id="Path" fill="#00AEE0" fill-rule="nonzero"></path>
                        <path d="M70.4592126,44.4079643 C70.4893228,43.1020714 70.3353701,41.7983339 70.0018898,40.5359286 C69.6973858,39.3739375 69.2672756,38.2489679 68.7193701,37.1811786 C68.1499213,36.0757339 67.4838425,35.0234125 66.7288189,34.0368929 C65.1981102,32.0286071 63.3108661,30.2181071 61.2258268,28.6231429 C59.1060157,27.0168946 56.8370394,25.6204768 54.4503937,24.4531607 C52.0298583,23.2615018 49.5194961,22.2639518 46.9429921,21.4698929 C44.3381417,20.6502232 41.687937,19.9842179 39.0059843,19.4755536 C37.4614173,19.1848339 35.9076535,18.9561125 34.3445669,18.7896429 L34.2286614,18.7756964 C29.6932283,18.2393929 26.5007874,18.2685536 24.1159055,18.5614286 C22.6713701,18.7673286 21.2458583,19.0916464 19.8538583,19.5313393 L19.8261417,19.5414821 C19.023748,19.7977161 18.2367244,20.1003536 17.4689764,20.448 C17.2690394,20.53675 17.0704882,20.6301911 16.8730709,20.7281964 C14.7742992,21.7507232 12.880252,23.1531 11.2856693,24.8652143 L11.2856693,24.8652143 L11.1496063,25.0110179 L11.4015748,25.1225893 C11.3782677,25.0679446 11.3782677,25.0060732 11.4015748,24.9514286 C11.4067402,24.9409054 11.4125354,24.9306357 11.4192126,24.921 L19.6787402,28.3898571 C19.6787402,28.3898571 30.7174803,32.4634821 32.8554331,33.0910714 C34.9933858,33.7186607 50.1152756,38.2461786 50.1152756,38.2461786 C50.1152756,38.2461786 58.9656693,41.16225 59.343622,51.191 C59.7215748,61.21975 51.3146457,68.3260893 41.0759055,66.5320714 C30.8371654,64.7380536 11.4166929,56.0088571 9.20188976,54.599 L9.05574803,54.599 C9.0512126,54.5887304 9.04743307,54.5780804 9.04440945,54.5673036 C8.96377953,54.5254643 8.88440945,54.4823571 8.80503937,54.4405179 C13.8859843,61.2324286 23.3675591,65.7358571 34.5461417,68.8940893 C47.2919685,72.4922679 59.7316535,71.0824107 67.8437795,65.9970357 C64.6588976,65.0030357 62.4100787,62.2188214 63.7669291,54.430375 C65.0658268,46.922125 67.4280315,44.667875 70.4592126,44.4079643 Z" id="Path" fill="#00AEE0" fill-rule="nonzero"></path>
                        <path d="M9.05574803,54.3910714 C9.11559055,54.2814018 9.25177953,54.2401964 9.36188976,54.2985179 L9.36188976,54.2985179 C11.5514961,55.4662143 13.7851969,56.5476964 16.0390551,57.572125 C18.2929134,58.5965536 20.5870866,59.5537857 22.8951181,60.4615714 C25.2031496,61.3693571 27.5262992,62.2365714 29.8746457,63.0327857 C32.2229921,63.829 34.5877165,64.5694286 36.976378,65.2096964 C37.5722835,65.3783214 38.1744882,65.5139821 38.7729134,65.6648571 C39.0727559,65.7421964 39.3738583,65.8017857 39.6749606,65.8677143 C39.976063,65.9336429 40.2771654,66.003375 40.5782677,66.0591607 C41.7777638,66.3000536 42.9972913,66.4260786 44.2204724,66.4359043 C46.6494488,66.447125 49.0910236,65.9450536 51.247874,64.8293393 C52.328315,64.2773143 53.3345512,63.5892482 54.2425197,62.78175 C54.6927874,62.3767964 55.1193701,61.9458518 55.52,61.4910714 C55.919874,61.0335018 56.2910236,60.5512089 56.6311811,60.0469821 C57.3130079,59.0410643 57.8634331,57.9510875 58.2689764,56.8038036 C58.4680315,56.2321268 58.6251339,55.6465036 58.7388976,55.051625 C58.8507717,54.4530696 58.9247244,53.8479214 58.9606299,53.2398571 C58.9933858,52.6309054 58.9933858,52.0205589 58.9606299,51.4116071 L58.9266142,50.9539107 L58.9089764,50.7256964 L58.8825197,50.49875 L58.8296063,50.0435893 L58.7577953,49.5909643 C58.736378,49.4400893 58.7074016,49.2904821 58.6759055,49.140875 L58.5851969,48.6920536 L58.4768504,48.2470357 L58.4226772,48.0251607 L58.3584252,47.8045536 L58.2324409,47.365875 L58.0850394,46.9322679 C57.9943307,46.6419286 57.8708661,46.3617321 57.7637795,46.0764643 C57.2970079,44.951875 56.6922835,43.890425 55.9634646,42.9169643 C54.4851654,40.9742268 52.4889449,39.49375 50.2072441,38.6480893 C49.9225197,38.5466607 49.6415748,38.4312857 49.3480315,38.3526786 C49.0544882,38.2740714 48.7710236,38.1764464 48.4661417,38.0991071 C47.8664567,37.9355536 47.2655118,37.7758036 46.6670866,37.6071786 C44.2699843,36.9437089 41.8825827,36.2480357 39.5048819,35.5202857 C34.7489764,34.0660536 30.0195276,32.5218036 25.3392126,30.8292143 C20.6588976,29.136625 16.0302362,27.3033036 11.4985827,25.2405 C11.4469291,25.2164107 11.4063622,25.1733036 11.3851969,25.1200536 L11.1332283,25.0084821 C10.8972598,25.267125 10.6670866,25.5337554 10.4428346,25.8085 C10.0297323,26.3151357 10.1028031,27.0629179 10.6062362,27.4786482 C10.6531024,27.5174446 10.7029921,27.5524375 10.7552756,27.5835 C11.2113386,27.8548214 11.6834016,28.1223393 12.1713386,28.3860536 C13.9011024,29.323 15.816063,30.2168393 17.8406299,31.0663036 C28.1713386,35.3998393 41.375748,38.5568036 47.4683465,40.177125 C48.5773858,40.4654357 49.6385512,40.9156518 50.6179528,41.5134464 C52.7206299,42.8079286 54.1455118,44.6691429 55.0148031,46.6939107 C56.2973228,49.6771786 56.3792126,53.0141786 55.6611024,55.4104286 C54.2437795,60.1408036 49.0670866,65.4100179 40.5127559,63.6831964 C37.76,63.127875 33.8935433,61.9766607 29.6970079,60.5135536 C25.9527559,59.2089286 21.9388976,57.6456607 18.2223622,56.0392857 C15.4103937,54.820875 12.7685039,53.5745714 10.5373228,52.3865893 C9.58740157,51.8794464 8.71181102,51.3837143 7.9319685,50.9057321 C7.65732283,50.7339375 7.29725984,50.8073464 7.11055118,51.0730893 C7.072,51.1258321 7.04226772,51.1845339 7.0223622,51.2467857 C7.0216063,51.25135 7.0216063,51.2561679 7.0223622,51.2607321 C6.97537008,51.4155375 6.99275591,51.5828946 7.07023622,51.7247679 C7.5744252,52.6745196 8.15193701,53.5829393 8.79748031,54.4417857 L8.79748031,54.4417857 C8.87685039,54.4848929 8.95622047,54.528 9.03685039,54.5685714 C9.01883465,54.5092357 9.0256378,54.4452089 9.05574803,54.3910714 Z" id="Path" fill="#FFB400" fill-rule="nonzero"></path>
                        <path d="M12.9650394,42.0928571 C12.9980472,42.1530804 13.0406299,42.2074714 13.0910236,42.253875 C13.344252,42.4752429 13.727748,42.4481107 13.9477165,42.1932714 C13.9480945,42.1927643 13.9485984,42.1922571 13.9489764,42.19175 L13.9829921,42.1524464 C14.1773858,41.9168786 14.3385197,41.6553196 14.4617323,41.37525 C14.6866142,40.8708964 14.8185197,40.3296482 14.8510236,39.77775 C14.8592126,39.6308054 14.8592126,39.4834804 14.8510236,39.3365357 C14.8447244,39.1783071 14.8201575,39.0212196 14.7779528,38.8686964 L14.7401575,38.7419107 C14.6423937,38.4307786 14.3124409,38.25835 14.0034016,38.3567357 C13.9477165,38.3744857 13.8950551,38.4004768 13.8469291,38.4338214 C13.6968819,38.5377857 13.559937,38.6595 13.4387402,38.7964286 C13.328252,38.9228339 13.2287244,39.0586214 13.1414173,39.2021429 C12.9736063,39.4822125 12.8487559,39.7861179 12.7710236,40.1035893 C12.6901417,40.4234696 12.6595276,40.7542536 12.680315,41.0836429 C12.6968189,41.4376286 12.7942047,41.7829929 12.9650394,42.0928571 Z" id="Path" fill="#FFB400" fill-rule="nonzero"></path>
                        <path d="M20.8919685,50.8410714 C20.9373228,50.862625 22.0132283,51.3672321 23.4809449,51.8769107 C23.5862677,51.9139321 23.6970079,51.9326964 23.8085039,51.9326964 C24.3651024,51.9429661 24.8244409,51.4973143 24.8346457,50.937175 C24.8428346,50.4905089 24.559622,50.0911339 24.1373228,49.9535714 C22.7855118,49.4844643 21.7688189,49.0102857 21.743622,48.998875 C21.2381732,48.7621661 20.6377323,48.9827732 20.4025197,49.4914375 C20.1673071,50.0001018 20.3865197,50.6043625 20.8919685,50.8410714 Z" id="Path" fill="#FFB400" fill-rule="nonzero"></path>
                        <path d="M2.11779528,50.7713393 C1.90311811,50.7887089 1.6936063,50.8467768 1.50047244,50.9425 C0.138582677,51.6233393 0.00251968504,54.0779107 0.102047244,55.2456071 C0.282582677,56.5635446 1.49064567,57.4846429 2.80025197,57.3029589 C4.01688189,57.1342071 4.90922835,56.0661643 4.86551181,54.8310179 C4.77858268,53.8167321 4.35023622,51.8807143 3.28566929,51.10225 C2.95067717,50.8498196 2.5344252,50.7317821 2.11779528,50.7713393 Z" id="Path" fill="#04294F" fill-rule="nonzero"></path>
                        <path d="M17.463937,20.4454643 C17.463937,20.4454643 17.8507087,19.68475 19.6472441,18.8758571 C24.040315,16.9043393 32.4497638,15.7772143 48.5051969,20.5506964 C65.1590551,25.5029464 72.4270866,35.4036429 72.3754331,44.4675536 L72.5253543,44.4878393 C73.055622,44.5573179 73.5793386,44.6701571 74.0913386,44.8250893 C74.5209449,44.9442679 74.9152756,45.0786607 75.2806299,45.2130536 L76.4598425,43.1426429 C76.3097953,41.6834661 76.0013858,40.2450821 75.5401575,38.8534821 C75.0305512,37.3235589 74.3571654,35.8539857 73.5319685,34.4705 C72.7273071,33.1280929 71.8057323,31.8603625 70.7779528,30.6821429 C68.7496063,28.3530893 66.4151181,26.4081964 63.9458268,24.7561786 C61.4893858,23.1321804 58.8832756,21.7498357 56.1637795,20.6280357 C53.4848504,19.5175196 50.7231496,18.6213982 47.904252,17.9477857 C45.4520945,17.3489768 42.9712126,16.8763196 40.4711811,16.5315893 C40.1373228,16.4859464 39.8034646,16.4415714 39.4633071,16.4048036 C38.9240945,16.3405232 38.384,16.2827089 37.8431496,16.2311071 C35.5336063,16.0039071 33.2124724,15.9192143 30.8925984,15.9775357 C28.0201575,16.0382661 25.1613228,16.3917446 22.359685,17.0323929 C19.52,17.6599821 17.896063,19.0229286 16.816378,20.7560893 L16.8617323,20.7345357 C17.0582677,20.6372911 17.2569449,20.5439768 17.4576378,20.4543393 L17.463937,20.4454643 Z" id="Path" fill="#FF3A00" fill-rule="nonzero"></path>
                        <path d="M85.2988976,27.6177321 L85.2988976,27.6177321 L76.4598425,43.1426429 L75.2806299,45.2130536 C76.0034016,45.4801911 76.6940472,45.8284714 77.3392126,46.2514286 L87.2919685,28.7689464 L87.2919685,28.7689464 C87.5514961,28.31125 85.5672441,27.1511607 85.2988976,27.6177321 Z" id="Path" fill="#00AEE0" fill-rule="nonzero"></path>
                        <path d="M76.2897638,65.4784821 C75.8990866,65.6821 75.4908976,65.8497107 75.0702362,65.9792857 C75.4970709,65.8677143 75.9072756,65.6993429 76.2897638,65.4784821 Z" id="Path" fill="#04294F" fill-rule="nonzero"></path>
                        <path d="M80.503937,52.0455357 C80.3577953,50.4771964 79.9672441,49.2904821 79.3940157,48.395375 C78.6847244,47.286 77.695748,46.620375 76.5467717,46.2400179 C76.0268346,46.0708857 75.4925354,45.9508196 74.9505512,45.8812143 C71.2352756,45.3740714 68.3237795,46.6229107 66.856063,55.0579643 C65.3883465,63.4930179 68.4938583,65.5723036 72.2129134,66.0883214 C72.4648819,66.1238214 72.7269291,66.1504464 72.9814173,66.1656607 C73.6783622,66.2161214 74.3789606,66.1566589 75.0576378,65.9894286 L75.0677165,65.9894286 C75.488378,65.8598536 75.8965669,65.6922429 76.2872441,65.488625 C77.2346457,64.9421786 78.0762205,64.0305893 78.767874,62.6118571 C81.1401575,57.5886071 80.503937,52.0455357 80.503937,52.0455357 Z" id="Path" fill="#FFB400" fill-rule="nonzero"></path>
                        <path d="M80.7962205,52.4892857 L80.7886614,52.4766071 C80.7060157,52.346525 80.6132913,52.2231625 80.5114961,52.1076607 C80.136189,51.6863518 79.6548031,51.3748393 79.1181102,51.2062143 C78.9252283,51.1416804 78.728315,51.0904589 78.5285039,51.0528036 C78.4151181,51.0299821 78.2992126,51.0109643 78.1807874,50.9932143 C76.9209449,50.8207857 75.8097638,50.9932143 74.9354331,52.1418929 C74.7715276,52.3417071 74.631937,52.5604125 74.519685,52.7935714 L74.2853543,54.4798214 L76.6462992,62.8603571 C76.6462992,62.8603571 76.5051969,62.9300893 77.4022047,62.9047321 C77.7065827,62.900675 78.0091969,62.858075 78.3029921,62.7779464 L78.3155906,62.7779464 C78.472315,62.7252036 78.6262677,62.6642196 78.7766929,62.595375 C78.8447244,62.5649464 78.9026772,62.53325 78.9669291,62.5015536 C80.0617323,61.867625 80.919685,60.40325 81.3266142,57.4681607 C81.6655118,55.00725 81.4122835,53.454125 80.7962205,52.4892857 Z" id="Path" fill="#FF3A00" fill-rule="nonzero"></path>
                        <path d="M77.0192126,62.897125 L76.7168504,62.8692321 C76.8176378,62.8857143 76.919685,62.8857143 77.0192126,62.897125 Z" id="Path" fill="#FF3A00" fill-rule="nonzero"></path>
                        <path d="M76.5341732,62.8476786 L76.5744882,62.8476786 L76.6462992,62.8552857 L76.8982677,59.9734464 L77.3152756,60.0254286 C77.3971654,60.0368393 77.4752756,60.0444464 77.5483465,60.04825 C77.7569764,60.0648589 77.9668661,60.0463482 78.1694488,59.9937321 C78.2475591,59.9681214 78.3240315,59.9380732 78.3987402,59.9037143 C78.4340157,59.8872321 78.4629921,59.8732857 78.4894488,59.8580714 C79.0790551,59.5182857 79.4822047,58.6168393 79.6812598,57.1828929 C79.8525984,55.9518036 79.7669291,55.0554286 79.4292913,54.5203929 L79.4154331,54.4988393 C79.3777638,54.4422929 79.335685,54.3887893 79.2894488,54.3390893 C79.1131969,54.1429518 78.8871811,53.9986696 78.6355906,53.9219643 C78.5374488,53.8893804 78.4372913,53.8631357 78.335748,53.8433571 C78.2740157,53.8306786 78.2097638,53.8218036 78.1505512,53.8129286 C77.44,53.7153036 77.0053543,53.8484286 76.6488189,54.2744286 L76.3905512,54.5825179 L74.519685,52.7935714 C74.0762205,53.6202143 73.7083465,54.7790357 73.4299213,56.3803393 C72.5732283,61.3034286 74.3710236,62.5370536 76.5341732,62.8476786 Z M77.92,55.3013929 L78.0144882,55.317875 C78.0691654,55.3277643 78.1230866,55.3417107 78.175748,55.3597143 C78.3213858,55.4054839 78.4519055,55.49005 78.5537008,55.6044107 C78.5816693,55.6356 78.6069921,55.6690714 78.6292913,55.7045714 L78.6292913,55.7045714 C78.7968504,55.9695536 78.8661417,56.3942857 78.7741732,57.0649821 C78.6620472,57.8675357 78.4277165,58.2681786 78.1291339,58.4406071 L78.0762205,58.4672321 C78.040063,58.4840946 77.9981102,58.5005768 77.9502362,58.5166786 L77.9502362,58.5166786 C77.8359685,58.5466 77.7176693,58.55725 77.6,58.548375 L77.4740157,58.5369643 L77.4626772,58.5369643 C76.871811,58.4520179 76.3804724,58.1147679 76.6148031,56.7695714 C76.8491339,55.424375 77.3253543,55.22025 77.9212598,55.3013929 L77.92,55.3013929 L77.92,55.3013929 Z" id="Shape" fill="#FF3A00" fill-rule="nonzero"></path>
                        <path d="M78.3143307,62.7741429 C78.4706772,62.7291339 78.6232441,62.6714464 78.7703937,62.6017143 C78.8359055,62.5700179 78.896378,62.5357857 78.9656693,62.49775 C78.9064567,62.5294464 78.839685,62.5611429 78.7754331,62.5915714 C78.6250079,62.6604161 78.4710551,62.7214 78.3143307,62.7741429 Z" id="Path" fill="#04294F" fill-rule="nonzero"></path>
                        <path d="M78.488189,50.6445536 C78.231811,50.5432518 77.9701417,50.4556429 77.7045669,50.3821071 L77.6214173,50.3580179 C77.4258898,50.3008375 77.2273386,50.2543071 77.0267717,50.2185536 L77.0267717,50.2185536 C76.9385827,50.2020714 76.8516535,50.1893929 76.7634646,50.1767143 C74.4025197,49.8534107 72.551811,50.649625 71.6195276,56.0088571 C70.7376378,61.0929643 72.4661417,62.5446607 74.6582677,62.9567143 C74.6935433,62.9643214 74.7275591,62.9706607 74.7628346,62.9757321 C75.3028031,63.0760196 75.8518425,63.1184929 76.4006299,63.1025179 C77.0471811,63.0854018 77.688189,62.9761125 78.304252,62.7779464 C78.0104567,62.858075 77.7078425,62.900675 77.4034646,62.9047321 L77.5886614,60.8165714 C77.8616693,60.8295036 78.1350551,60.799075 78.3987402,60.7265536 L78.4125984,60.7265536 C78.5162835,60.6919411 78.6180787,60.65175 78.7174803,60.6061071 C78.767874,60.5845536 78.8119685,60.5617321 78.863622,60.5338393 C79.6862992,60.0596607 80.200315,59.001 80.4359055,57.2982679 C80.6349606,55.8668571 80.5177953,54.82975 80.0781102,54.128625 L80.0554331,54.093125 C79.9989921,54.0038679 79.935748,53.9190482 79.8664567,53.8395536 C79.6018898,53.5438893 79.2633701,53.3250571 78.8862992,53.205625 C78.7572913,53.1620107 78.6256378,53.1272714 78.4919685,53.1016607 C78.4188976,53.0880946 78.3433071,53.0754161 78.2651969,53.063625 C77.7385827,52.992625 77.0053543,52.9710714 76.3640945,53.5048393 L74.9354331,52.1418929 C75.8097638,51.0008214 76.9146457,50.8207857 78.1807874,50.9932143 C78.2992126,51.0109643 78.4151181,51.0299821 78.5285039,51.0528036 C78.728315,51.0904589 78.9252283,51.1416804 79.1181102,51.2062143 C79.6540472,51.3730643 80.1354331,51.6822946 80.5114961,52.1013214 C80.6132913,52.2168232 80.7060157,52.3401857 80.7886614,52.4702679 C80.7062677,52.3205339 80.6110236,52.1784071 80.503937,52.0455357 C80.1801575,51.6360179 79.5779528,51.0794286 78.488189,50.6445536 Z M76.4056693,54.5850536 L76.663937,54.2769643 C77.0204724,53.8509643 77.4551181,53.7178393 78.1656693,53.8154643 C78.2274016,53.8243393 78.2916535,53.8332143 78.3508661,53.8458929 C78.4524094,53.8656714 78.5525669,53.8919161 78.6507087,53.9245 C78.9022992,54.0012054 79.128315,54.1453607 79.3045669,54.341625 C79.3508031,54.391325 79.3928819,54.4448286 79.4305512,54.501375 L79.4444094,54.5229286 C79.7820472,55.0605 79.8677165,55.956875 79.696378,57.1854286 C79.4973228,58.619375 79.0941732,59.5208214 78.5045669,59.8606071 C78.4781102,59.8758214 78.4491339,59.8897679 78.4138583,59.90625 C78.3391496,59.9406089 78.2625512,59.9706571 78.1845669,59.9962679 C77.9819843,60.0488839 77.7720945,60.0673946 77.5634646,60.0507857 C77.4903937,60.0507857 77.4122835,60.039375 77.3303937,60.0279643 L76.9133858,59.9759821 L76.6614173,62.8578214 L76.5896063,62.8502143 L76.5492913,62.8502143 C74.3861417,62.5395893 72.5883465,61.3059643 73.4450394,56.3841429 C73.7234646,54.7828393 74.0913386,53.6240179 74.5348031,52.797375 L76.4056693,54.5850536 Z" id="Shape" fill="#04294F" fill-rule="nonzero"></path>
                        <path d="M75.2806299,45.2130536 C74.9152756,45.0748571 74.5247244,44.9442679 74.0913386,44.8250893 C73.5793386,44.6701571 73.055622,44.5573179 72.5253543,44.4878393 L72.3754331,44.4675536 C72.4270866,35.4036429 65.1590551,25.5029464 48.5051969,20.5506964 C32.4497638,15.7772143 24.040315,16.9043393 19.6535433,18.8758571 C17.8570079,19.6822143 17.4702362,20.4454643 17.4702362,20.4454643 L17.4702362,20.4454643 C18.2379843,20.0978179 19.0250079,19.7951804 19.8274016,19.5389464 L19.8551181,19.5288036 C21.2471181,19.0891107 22.6726299,18.7647929 24.1171654,18.5588929 C26.5020472,18.26475 29.688189,18.2368571 34.2299213,18.7731607 L34.3458268,18.7871071 C35.9080315,18.9519286 37.4617953,19.1805232 39.0072441,19.4730179 C41.6891969,19.9816821 44.3394016,20.6476875 46.944252,21.4673571 C49.5207559,22.2614161 52.0311181,23.2589661 54.4516535,24.450625 C56.8388031,25.6187018 59.1081575,27.0160071 61.2283465,28.6231429 C63.3133858,30.2181071 65.2006299,32.0286071 66.7313386,34.0368929 C67.4863622,35.0234125 68.1524409,36.0757339 68.7218898,37.1811786 C69.2697953,38.2489679 69.6999055,39.3739375 70.0044094,40.5359286 C70.3378898,41.7983339 70.4918425,43.1020714 70.4617323,44.4079643 C67.4305512,44.6615357 65.0683465,46.922125 63.7631496,54.4240357 C62.4062992,62.2124821 64.6551181,64.9966964 67.84,65.9906964 C68.1801575,66.0946607 68.5259843,66.1793536 68.8755906,66.2442679 C68.9574803,66.26075 69.0381102,66.2759643 69.12,66.2899107 C71.4897638,66.7095714 73.6062992,66.4319107 75.0626772,65.9742143 C74.384,66.1414446 73.6834016,66.2009071 72.9864567,66.1504464 C72.7344882,66.1352321 72.4825197,66.1086071 72.2179528,66.0731071 C68.5026772,65.5659643 65.3933858,63.4854107 66.8611024,55.04275 C68.3288189,46.6000893 71.240315,45.3550536 74.9555906,45.866 C75.4975748,45.9356054 76.031874,46.0556714 76.551811,46.2248036 C77.7007874,46.6051607 78.6935433,47.2720536 79.3990551,48.3801607 C79.176063,47.9706429 78.6229921,47.0920179 77.3417323,46.2362143 C76.6950551,45.8184554 76.0036535,45.4752464 75.2806299,45.2130536 Z" id="Path" fill="#04294F" fill-rule="nonzero"></path>
                        <ellipse id="Oval" fill="#04294F" fill-rule="nonzero" cx="18.3344882" cy="26.1140536" rx="1" ry="1"></ellipse>
                        <ellipse id="Oval" fill="#04294F" fill-rule="nonzero" cx="70.1051969" cy="57.3451786" rx="1" ry="1"></ellipse>
                        <ellipse id="Oval" fill="#04294F" fill-rule="nonzero" cx="69.9099213" cy="59.8999107" rx="1" ry="1"></ellipse>
                        <path d="M19.8148031,23.3957664 C19.4460472,23.3950071 19.1465827,23.6953625 19.1458253,24.0664643 C19.1450709,24.4375661 19.4435276,24.7389357 19.8122835,24.7396979 C20.1810394,24.7404571 20.4805039,24.4401018 20.4812598,24.069 C20.4812598,24.0681125 20.4812598,24.0673518 20.4812598,24.0664643 C20.4812598,23.6959964 20.1829291,23.3957664 19.8148031,23.3957664 C19.8148031,23.3957664 19.8148031,23.3957664 19.8148031,23.3957664 Z" id="Path" fill="#04294F" fill-rule="nonzero"></path>
                        <path d="M36.9902362,50.418875 C37.0229921,50.4796054 37.0655748,50.5345036 37.1162205,50.5811607 C37.3704567,50.8015143 37.7539528,50.7737482 37.9741732,50.5190357 L38.0069291,50.4797321 C38.2022047,50.2447982 38.3634646,49.9831125 38.4856693,49.7025357 C38.5979213,49.4518804 38.6869921,49.1912089 38.7514961,48.9240714 C38.8183937,48.6551589 38.8605984,48.3805411 38.8774803,48.1037679 C38.8862992,47.9572036 38.8862992,47.8103857 38.8774803,47.6638214 C38.8709291,47.5052125 38.8468661,47.3478714 38.8056693,47.1947143 L38.767874,47.0679286 C38.7497323,47.0129036 38.7237795,46.9609214 38.6910236,46.91325 C38.5068346,46.6442107 38.1409764,46.5761268 37.8733858,46.7611071 C37.7232126,46.8643107 37.5865197,46.9861518 37.4664567,47.1237143 C37.3552126,47.2489786 37.255685,47.3843857 37.1691339,47.5281607 C37.0008189,47.8083571 36.8758425,48.1127696 36.7987402,48.430875 C36.7168504,48.7501214 36.6857323,49.080525 36.7067717,49.4096607 C36.7239055,49.7633929 36.8209134,50.1085036 36.9902362,50.418875 Z" id="Path" fill="#FFB400" fill-rule="nonzero"></path>
                        <path d="M63.6094488,39.6319621 L63.632126,39.6319621 C66.4869291,39.4645893 68.7470866,39.1932679 68.7697638,39.1907321 C68.9785197,39.1658821 69.127685,38.97545 69.1029921,38.7653661 C69.0782992,38.5552821 68.8890709,38.4051679 68.680315,38.4300179 C68.6588976,38.4300179 66.5537008,38.6835893 63.8450394,38.8522143 C63.4255118,37.9647143 61.8217323,34.9294643 58.5537008,32.2593571 C60.1400945,31.8092679 61.7857008,31.607425 63.4330709,31.6609286 L63.4444094,31.6609286 C63.6531654,31.6637179 63.8246299,31.4957268 63.8274016,31.2856429 C63.8301732,31.0755589 63.6632441,30.9030036 63.4544882,30.9002143 C60.0050394,30.805125 57.719685,31.7319286 57.623937,31.7712321 C57.4308031,31.8508536 57.3384567,32.0731089 57.4175748,32.2674714 C57.4432756,32.3306107 57.4854803,32.3856357 57.5395276,32.4267143 C61.5571654,35.4809821 63.2415748,39.360625 63.2579528,39.3999286 C63.3176693,39.5418018 63.456378,39.6333411 63.6094488,39.6319621 Z" id="Path" fill="#04294F" fill-rule="nonzero"></path>
                        <path d="M40.9448819,35.2312143 C41.1690079,34.5905661 41.4445354,33.9694429 41.7688189,33.3738036 C41.872126,33.1912321 41.7272441,33.0390893 41.5458268,32.935125 C41.3644094,32.8311607 41.215748,32.8146786 41.1124409,32.99725 C40.7589291,33.6444911 40.4593386,34.3200054 40.2166929,35.0169464 L40.9448819,35.2312143 Z" id="Path" fill="#FF3A00" fill-rule="nonzero"></path>
                        <path d="M44.6274016,34.2143929 C44.7307087,34.0318214 44.5870866,33.8796786 44.4056693,33.7757143 C44.224252,33.67175 44.0743307,33.6552679 43.9710236,33.8378393 C43.6186457,34.4830518 43.319811,35.1564107 43.0777953,35.8511964 L43.8085039,36.0603929 C44.0313701,35.4238018 44.3052598,34.8064821 44.6274016,34.2143929 Z" id="Path" fill="#FF3A00" fill-rule="nonzero"></path>
                        <path d="M47.5300787,35.0549821 C47.6333858,34.8724107 47.4885039,34.7202679 47.3070866,34.6163036 C47.1256693,34.5123393 46.9770079,34.4958571 46.8737008,34.6784286 C46.5259843,35.3178089 46.2309291,35.9848286 45.991811,36.6727679 L46.7237795,36.8768929 C46.9431181,36.2486696 47.2127244,35.6393375 47.5300787,35.0549821 Z" id="Path" fill="#FF3A00" fill-rule="nonzero"></path>
                        <path d="M77.4702362,58.5407679 L77.480315,58.5407679 L77.6062992,58.5521786 C77.7239685,58.5610536 77.8422677,58.5504036 77.9565354,58.5204821 L77.9565354,58.5204821 C78.0035276,58.5036196 78.0456063,58.4871375 78.0825197,58.4710357 L78.1354331,58.4444107 C78.4340157,58.2719821 78.6683465,57.8713393 78.7804724,57.0687857 C78.8724409,56.3980893 78.8031496,55.9733571 78.6355906,55.708375 L78.6355906,55.708375 C78.6132913,55.672875 78.5879685,55.6394036 78.56,55.6082143 C78.4582047,55.4938536 78.327685,55.4092875 78.1820472,55.3635179 C78.1293858,55.3455143 78.0754646,55.3315679 78.0207874,55.3216786 L77.9262992,55.3051964 C77.3303937,55.2240536 76.8629921,55.424375 76.6274016,56.7771786 C76.391811,58.1299821 76.8793701,58.4558214 77.4702362,58.5407679 Z" id="Path" fill="#04294F" fill-rule="nonzero"></path>
                        <path d="M91.0135433,26.8151786 C90.8738268,26.4225232 90.6599055,26.0609304 90.383622,25.7501786 C90.1297638,25.4523589 89.8455433,25.1820518 89.535748,24.9438214 C89.232378,24.7087607 88.911874,24.496775 88.5770079,24.3098929 C87.9089134,23.9261125 87.1814803,23.6578339 86.4251969,23.5162143 C86.0246929,23.4412839 85.6142362,23.4360857 85.2119685,23.501 C84.9931339,23.5401768 84.7828661,23.6177696 84.5908661,23.7304821 C84.5656693,23.7456964 84.5417323,23.7647143 84.5177953,23.7824643 C84.3484724,23.8982196 84.2111496,24.0553071 84.1184252,24.2388929 C84.0535433,24.3627625 84.1007874,24.5161732 84.224,24.5814679 C84.2568819,24.5988375 84.2930394,24.6087268 84.3300787,24.610375 C84.4045354,24.6165875 84.4779843,24.5892018 84.5303937,24.5355714 L84.5492913,24.5178214 C84.7528819,24.3315732 85.0232441,24.2372446 85.2976378,24.2566429 C85.6154961,24.2619679 85.9313386,24.3105268 86.2362205,24.4011786 C86.8839055,24.5940196 87.5077795,24.8602696 88.095748,25.1948571 C88.6864882,25.5181607 89.2364094,25.9119571 89.7335433,26.367625 C89.9643465,26.57885 90.1607559,26.8253214 90.3155906,27.0979107 C90.4602205,27.3295482 90.4948661,27.6139286 90.4100787,27.8738393 L90.4025197,27.8953929 C90.384252,27.9496571 90.384252,28.0084857 90.4025197,28.06275 C90.4181417,28.1125768 90.447874,28.1566982 90.488189,28.1895357 C90.6017008,28.2762571 90.7634646,28.2540696 90.8497638,28.1400893 C90.9927559,27.9528268 91.080063,27.7286696 91.1017323,27.4934821 C91.104126,27.4512625 91.104126,27.4089161 91.1017323,27.3666964 C91.1008504,27.1794339 91.0711181,26.9933125 91.0135433,26.8151786 Z" id="Path" fill="#04294F" fill-rule="nonzero"></path>
                        <path d="M91.0299213,24.7751964 C90.480252,24.1697946 89.8338268,23.6611304 89.1174803,23.27025 C88.4113386,22.8671982 87.6457323,22.5800286 86.8497638,22.4195179 C86.4348976,22.3358393 86.0089449,22.3234143 85.5899213,22.38275 C85.4946772,22.3998661 85.4004409,22.4223071 85.3077165,22.4499464 C85.1850079,22.4864607 85.0669606,22.5375554 84.9562205,22.6020893 C84.7513701,22.7180982 84.5833071,22.8898929 84.4711811,23.0978214 C84.4209134,23.1915161 84.4555591,23.3084125 84.5486614,23.359 C84.5884724,23.3806804 84.6347087,23.3874 84.6790551,23.3780179 C84.7212598,23.3699036 84.7595591,23.3475893 84.7874016,23.314625 L84.7949606,23.3070179 C85.0174488,23.069675 85.3301417,22.9395929 85.6541732,22.9494821 C86.0094488,22.9428893 86.3638425,22.9881518 86.7061417,23.083875 C87.0626772,23.1775696 87.4117795,23.2978893 87.7505512,23.4439464 C88.0965039,23.5863268 88.4331339,23.7506411 88.7584252,23.935875 C89.0848504,24.1146429 89.400063,24.3136964 89.7020472,24.5317679 C90.0016378,24.7446411 90.2843465,24.9807161 90.5474016,25.2379643 C90.8022677,25.480125 91.0151811,25.7633643 91.1773228,26.0760179 C91.3369449,26.3576089 91.3592441,26.6973946 91.2377953,26.99775 L91.2377953,27.006625 C91.2148661,27.0593679 91.2177638,27.1198446 91.2453543,27.1701786 C91.2584567,27.1987054 91.2783622,27.2235554 91.3033071,27.2424464 C91.3904882,27.3033036 91.5099213,27.2823839 91.5716535,27.1955357 C91.7073386,27.0035821 91.7875906,26.77765 91.8034646,26.5425893 C91.8145512,26.3751054 91.7993071,26.2069875 91.7581102,26.0443214 C91.7429921,25.9834643 91.7266142,25.9175357 91.7064567,25.8642857 C91.552252,25.4609804 91.3225827,25.0912732 91.0299213,24.7751964 Z" id="Path" fill="#04294F" fill-rule="nonzero"></path>
                        <path d="M40.5303937,8.71017857 C40.752126,8.54637143 41.0305512,8.48095 41.3014173,8.528875 C41.6168819,8.56805179 41.9257953,8.64944821 42.2198425,8.77103571 C42.8428346,9.03145357 43.4344567,9.36185714 43.983622,9.75616071 C44.5392126,10.1396875 45.0468031,10.5892696 45.4954331,11.0950179 C45.7031811,11.3294446 45.8731339,11.5950607 45.9993701,11.8823571 C46.1195591,12.1280679 46.1245984,12.4148571 46.0132283,12.664625 L46.0031496,12.6849107 C45.9584252,12.7864661 45.9811024,12.9051375 46.0598425,12.9828571 C46.1587402,13.0813696 46.3182362,13.0804821 46.416126,12.9809554 C46.4187717,12.9782929 46.4214173,12.9755036 46.423937,12.9727143 C46.584189,12.8006661 46.6929134,12.5866518 46.7376378,12.3552679 C46.7376378,12.3210357 46.7477165,12.2880714 46.7514961,12.2538393 C46.7745512,12.0606179 46.7656063,11.8647339 46.7250394,11.6744286 C46.6282835,11.2696018 46.4540472,10.8877232 46.2122835,10.5498393 C45.9913071,10.2286911 45.7379528,9.93125179 45.456378,9.66233929 C45.1807244,9.39659643 44.8859213,9.15164643 44.5744882,8.92951786 C43.9470866,8.4774 43.2486299,8.13457143 42.5083465,7.91523214 C42.1175433,7.79884286 41.7097323,7.75041071 41.3026772,7.77196429 C41.087874,7.78755893 40.8773543,7.84030179 40.680315,7.92791071 L40.6614173,7.93551786 C40.4472441,8.03390357 40.2657008,8.19238571 40.1385827,8.39194643 C40.0457323,8.496925 40.0550551,8.65794286 40.1593701,8.75138393 C40.263685,8.844825 40.423685,8.83544286 40.5165354,8.73046429 L40.5303937,8.71017857 Z" id="Path" fill="#04294F" fill-rule="nonzero"></path>
                        <path d="M40.9045669,7.53107143 C41.1338583,7.31046429 41.4551181,7.242 41.7965354,7.26608929 C42.1504252,7.29740536 42.4978898,7.37981607 42.8283465,7.51078571 C43.1730394,7.64200893 43.5077795,7.79833571 43.8299213,7.978625 C44.1560945,8.15815357 44.4715591,8.3567 44.7748031,8.57325 C45.0828346,8.78523571 45.3773858,9.01649286 45.6566929,9.2655 C45.9332283,9.50842143 46.1901102,9.77289643 46.4251969,10.0566429 C46.6543622,10.3242875 46.8374173,10.6284464 46.9669291,10.9568214 C47.0969449,11.2536268 47.0834646,11.5943 46.9303937,11.8798214 L46.9303937,11.8874286 C46.896378,11.9466375 46.896378,12.0196661 46.9303937,12.078875 C46.9404724,12.0978929 46.9537008,12.1150089 46.9694488,12.1295893 C47.0497008,12.1999554 47.1715276,12.1915875 47.2414488,12.110825 C47.2414488,12.1106982 47.2415748,12.1106982 47.2415748,12.1105714 C47.3965354,11.9339589 47.4998425,11.7176625 47.5401575,11.4855179 C47.5604409,11.3700161 47.567622,11.2526125 47.5615748,11.1355893 C47.5554016,11.0228768 47.5392756,10.9107982 47.5137008,10.800875 C47.4054803,10.3848911 47.2190236,9.99363036 46.9644094,9.64839286 C46.480378,8.9886 45.8901417,8.41489464 45.2182677,7.95073214 C44.5565984,7.47528571 43.823874,7.108875 43.0475591,6.86544643 C42.6441575,6.73904107 42.2224882,6.6819875 41.800315,6.69682143 C41.7098583,6.70265357 41.6197795,6.71406429 41.5307087,6.73105357 C41.3984252,6.75412857 41.2694173,6.79330536 41.1464567,6.84769643 C40.9306457,6.9411375 40.7457008,7.094675 40.6135433,7.29017857 C40.5626457,7.3653625 40.5704567,7.46603036 40.6324409,7.53233929 C40.6945512,7.59738036 40.7934488,7.60955179 40.8692913,7.5615 C40.8821417,7.55516071 40.8943622,7.54742679 40.9058268,7.53867857 L40.9045669,7.53107143 Z" id="Path" fill="#04294F" fill-rule="nonzero"></path>
                        <path d="M47.5477165,5.08791071 C47.616252,5.12683393 47.7030551,5.10249107 47.7416063,5.03351964 C47.7416063,5.03351964 47.7416063,5.03339286 47.7417323,5.03339286 L48.8818898,2.98326786 L50.0522835,3.77314286 L50.1291339,3.82639286 C50.1814173,3.86163929 50.2393701,3.88737679 50.3004724,3.90246429 C50.599685,3.98005714 50.9046929,3.79888036 50.9817953,3.49789107 C50.9819213,3.49751071 50.9820472,3.49713036 50.9820472,3.49675 L51.7959055,0.299214286 C51.8233701,0.234426786 51.7935118,0.159496429 51.7291339,0.131857143 C51.6647559,0.104217857 51.5902992,0.134266071 51.5628346,0.199053571 L50.2198425,2.36075 L49.024252,1.55185714 L48.943622,1.49733929 C48.8823937,1.45676786 48.8139843,1.42836786 48.7420472,1.41366071 C48.4376693,1.35305714 48.1421102,1.55236429 48.0818898,1.85867857 L47.4746457,4.9345 C47.4629291,4.99624464 47.4925354,5.05849643 47.5477165,5.08791071 Z" id="Path" fill="#FFB400" fill-rule="nonzero"></path>
                        <path d="M45.1250394,4.52751786 C45.1526299,4.58558571 45.2217953,4.61018214 45.279622,4.58241607 C45.319685,4.56314464 45.3452598,4.5227 45.3455118,4.47807143 L45.351811,3.14935714 L45.855748,2.919875 L45.943937,2.87930357 C46.1349291,2.79156786 46.2228661,2.5675375 46.1429921,2.37216071 L45.4450394,0.646607143 C45.4253858,0.592723214 45.3661732,0.564957143 45.3125039,0.584735714 C45.272315,0.599569643 45.2453543,0.637732143 45.2447244,0.680839286 L45.1716535,2.11732143 L44.6538583,2.35314286 L44.5618898,2.39625 L44.5618898,2.39625 C44.3654803,2.48931071 44.2811969,2.72500536 44.3736693,2.92266429 C44.3737953,2.92304464 44.3740472,2.92329821 44.3741732,2.92367857 L45.1250394,4.52751786 Z" id="Path" fill="#FFB400" fill-rule="nonzero"></path>
                        <path d="M51.0929134,6.12882143 L51.0425197,6.04133929 L51.0425197,6.04133929 C50.927874,5.85585179 50.6854803,5.798925 50.5011654,5.9143 C50.5010394,5.91442679 50.5009134,5.91442679 50.5007874,5.91455357 L48.9990551,6.83628571 C48.9623937,6.86113571 48.9413543,6.90348214 48.943622,6.94785714 C48.9502992,7.01137679 49.0063622,7.05778036 49.0696063,7.05182143 L50.383622,6.92503571 L50.6633071,7.40428571 L50.7137008,7.48923214 C50.8204094,7.67015536 51.0497008,7.73443571 51.2340157,7.63503571 L52.871811,6.75514286 C52.9077165,6.73637857 52.9293858,6.69821607 52.9272441,6.65751786 C52.9238425,6.59983036 52.8749606,6.55570893 52.8176378,6.558625 L51.3902362,6.63596429 L51.0929134,6.12882143 Z" id="Path" fill="#FFB400" fill-rule="nonzero"></path>
                        <path d="M90.447874,20.6660714 C90.5188031,20.6985286 90.6024567,20.6670857 90.6347087,20.5957054 C90.6349606,20.5950714 90.6352126,20.5944375 90.6355906,20.5938036 L91.5892913,18.4485893 L92.8264567,19.1281607 L92.9083465,19.1738036 C93.1799685,19.3220161 93.5194961,19.2204607 93.6666457,18.9472375 C93.6967559,18.8914518 93.7171654,18.8308482 93.7272441,18.7680893 L94.2500787,15.5096964 C94.271622,15.4428804 94.2352126,15.3709929 94.1688189,15.3493125 C94.1024252,15.3276321 94.0309921,15.3642732 94.0094488,15.4310893 L94.0094488,15.4310893 L92.8667717,17.705625 L91.6069291,17.0095714 L91.5225197,16.9639286 C91.4582677,16.9286821 91.3874646,16.9066214 91.3146457,16.8992679 C91.0061102,16.8663036 90.7293228,17.0912214 90.6965669,17.4018464 C90.6964409,17.4033679 90.696189,17.4048893 90.696063,17.4064107 L90.3697638,20.5253393 C90.3642205,20.5840411 90.3953386,20.6400804 90.447874,20.6660714 Z" id="Path" fill="#FFB400" fill-rule="nonzero"></path>
                        <path d="M87.9848819,20.3262857 C88.0068031,20.3649554 88.0491339,20.3872696 88.0932283,20.3833393 C88.1569764,20.3780143 88.2044724,20.3215946 88.1991811,20.2574411 C88.1991811,20.2571875 88.1991811,20.2568071 88.1990551,20.2565536 L88.0856693,18.9329107 L88.5656693,18.6577857 L88.6513386,18.6096071 C88.8331339,18.5048821 88.9004094,18.2743857 88.8037795,18.08725 L87.952126,16.4326964 C87.9338583,16.3968161 87.8964409,16.3750089 87.856378,16.3769107 C87.7993071,16.3789393 87.7548346,16.4271179 87.7568504,16.4845518 C87.7568504,16.4845518 87.7568504,16.4846786 87.7568504,16.4846786 L87.8135433,17.9224286 L87.319685,18.2051607 L87.2314961,18.255875 L87.2314961,18.255875 C87.0444094,18.3668125 86.9821732,18.6092268 87.0922835,18.7975036 C87.0925354,18.7978839 87.0926614,18.7981375 87.0929134,18.7985179 L87.9848819,20.3262857 Z" id="Path" fill="#FFB400" fill-rule="nonzero"></path>
                        <path d="M95.8185827,21.6347143 L94.4037795,21.841375 L94.0724409,21.3773393 L94.0132283,21.2936607 L94.0132283,21.2936607 C93.8832126,21.1186964 93.6371654,21.0824357 93.4626772,21.2125179 L92.0491339,22.2686429 C91.9976063,22.3056643 91.9857638,22.3778054 92.0225512,22.4296607 C92.0491339,22.4670625 92.0951181,22.4849393 92.1398425,22.4753036 L93.4362205,22.2217321 L93.7574803,22.6730893 L93.8154331,22.7542321 C93.9380157,22.9248857 94.1724724,22.9678661 94.3470866,22.8518571 L95.8929134,21.8261607 C95.9264252,21.8042268 95.944189,21.7645429 95.9382677,21.7247321 C95.9314646,21.6676786 95.879937,21.6271071 95.8232441,21.6340804 C95.8217323,21.6342071 95.8202205,21.6344607 95.8185827,21.6347143 Z" id="Path" fill="#FFB400" fill-rule="nonzero"></path>
                        <path d="M11.5048819,25.2443036 C16.040315,27.3071071 20.6664567,29.1455 25.3455118,30.8330179 C30.0245669,32.5205357 34.7552756,34.0647857 39.5111811,35.5240893 C41.888126,36.2509518 44.2755276,36.946625 46.6733858,37.6109821 C47.271811,37.7796071 47.8727559,37.9393571 48.4724409,38.1029107 C48.7773228,38.1815179 49.0620472,38.2715357 49.3543307,38.3564821 C49.6466142,38.4414286 49.9288189,38.5504643 50.2135433,38.6518929 C52.4952441,39.4975536 54.4914646,40.9780304 55.9697638,42.9207679 C56.6985827,43.8942286 57.3033071,44.9556786 57.7700787,46.0802679 C57.8771654,46.3655357 58.0006299,46.6457321 58.0913386,46.9360714 L58.2387402,47.3696786 L58.3647244,47.8083571 L58.4289764,48.0289643 L58.4831496,48.2508393 L58.5914961,48.6958571 L58.6822047,49.1446786 C58.7137008,49.2942857 58.7426772,49.4438929 58.7640945,49.5947679 L58.8359055,50.0473929 L58.8888189,50.5025536 L58.9152756,50.7295 L58.9329134,50.9577143 L58.9669291,51.4154107 C58.999685,52.0243625 58.999685,52.6347089 58.9669291,53.2436607 C58.9319055,53.8512179 58.8585827,54.4558589 58.7477165,55.0541607 C58.632315,55.6470107 58.4740787,56.2304786 58.2740157,56.8 C57.8684724,57.9472839 57.3180472,59.0372607 56.6362205,60.0431786 C56.2945512,60.5488 55.9217638,61.0323607 55.52,61.4910714 C55.1186142,61.9471196 54.6912756,62.3794589 54.24,62.7855536 C53.3320315,63.5930518 52.3257953,64.2811179 51.2453543,64.8331429 C49.0885039,65.9488571 46.6469291,66.4509286 44.2179528,66.4395179 C42.9976693,66.4281071 41.7810394,66.3006875 40.5845669,66.0591607 C40.2834646,66.003375 39.9823622,65.932375 39.6812598,65.8677143 C39.3801575,65.8030536 39.0790551,65.7409286 38.7792126,65.6648571 C38.1807874,65.5139821 37.5785827,65.3783214 36.9826772,65.2096964 C34.5889764,64.5694286 32.2280315,63.8277321 29.8809449,63.0327857 C27.5338583,62.2378393 25.208189,61.3693571 22.9014173,60.4615714 C20.5946457,59.5537857 18.3029921,58.5990893 16.0453543,57.572125 C13.7877165,56.5451607 11.5527559,55.4662143 9.36818898,54.2985179 L9.36818898,54.2985179 C9.25807874,54.2401964 9.12188976,54.2814018 9.06204724,54.3910714 C9.03332283,54.4443214 9.02702362,54.5068268 9.04440945,54.5647679 C9.0607874,54.6235964 9.10034646,54.6730429 9.15401575,54.7016964 C11.3411024,55.8972857 13.5735433,57.0053929 15.8311811,58.0564464 C18.0888189,59.1075 20.3703937,60.0964286 22.6771654,61.0295714 C24.983937,61.9627143 27.3159055,62.8400714 29.6705512,63.6515 C32.0251969,64.4629286 34.3974803,65.2236429 36.8037795,65.8816607 C37.4022047,66.0540893 38.0119685,66.1960893 38.6154331,66.3520357 C38.9177953,66.4319107 39.223937,66.4940357 39.5288189,66.5637679 C39.8337008,66.6335 40.1385827,66.7032321 40.4472441,66.7628214 C41.6866772,67.0148714 42.9471496,67.1477429 44.2116535,67.1596607 C46.2707402,67.1870464 48.3163465,66.8231714 50.2412598,66.0870536 C50.8005039,67.05595 51.5548976,67.8962857 52.456063,68.5543036 L52.6261417,68.6696786 L52.8151181,68.5872679 C54.0849134,68.0347357 55.2792441,67.3210589 56.3691339,66.4636071 C56.8314961,67.0835893 57.9401575,68.417375 59.5187402,69.3619286 C59.5769449,69.397175 59.6435906,69.4151844 59.7114961,69.4151844 C59.920252,69.4146714 60.0890709,69.2438911 60.0884427,69.0338071 C60.0884427,68.9008089 60.0187717,68.7775732 59.9055118,68.7089821 C58.4302362,67.8214821 57.3719685,66.535875 56.9562205,65.9792857 C57.3014173,65.6800714 57.6377953,65.3669107 57.9640945,65.0372679 L58.2337008,64.7621429 L57.9565354,64.4958929 C57.943937,64.4832143 56.7344882,63.3091786 55.9710236,62.1021786 C56.0062992,62.0616071 56.0440945,62.0223036 56.0793701,61.9753929 C56.5007874,61.4933536 56.8917165,60.9853232 57.2497638,60.4539643 C57.9687559,59.3993607 58.5509291,58.2566411 58.9820472,57.0535714 C59.1947087,56.4462679 59.3630236,55.8242571 59.4859843,55.1923571 C59.6040315,54.5640071 59.6822677,53.9288107 59.720315,53.2905714 C59.7543307,52.6520786 59.7543307,52.0120643 59.720315,51.3735714 L59.6837795,50.8955893 L59.6648819,50.6572321 L59.6371654,50.4201429 L59.5792126,49.9446964 L59.503622,49.4717857 C59.4809449,49.3133036 59.4507087,49.1573571 59.4179528,49.0001429 L59.3222047,48.5310357 L59.2075591,48.067 L59.1496063,47.8337143 L59.0828346,47.6042321 L58.9480315,47.1452679 L58.7930709,46.691375 C58.6973228,46.3870893 58.5675591,46.0942143 58.4541732,45.795 C57.9605669,44.6120893 57.3214488,43.4961214 56.551811,42.4732143 C55.7697008,41.4565196 54.8517795,40.5532982 53.824252,39.7891607 C52.7943307,39.0309821 51.664252,38.4211429 50.4667717,37.9773929 C50.1669291,37.8708929 49.8708661,37.7517143 49.5647244,37.6693036 C49.2585827,37.5868929 48.9524409,37.4841964 48.656378,37.408125 L47.5640945,37.1139821 C47.768315,36.5359661 48.0186457,35.9754464 48.3124409,35.437875 C48.6223622,34.8901607 48.3514961,34.2739821 47.8085039,33.9608214 C47.2655118,33.6476607 46.6532283,33.7592321 46.3433071,34.3056786 C45.9584252,35.0106071 45.6331339,35.7469786 45.3707087,36.5066786 L44.6513386,36.3038214 C44.8575748,35.7155357 45.1104252,35.1448732 45.4072441,34.5972857 C45.7184252,34.0495714 45.4475591,33.4333929 44.9033071,33.1202321 C44.3590551,32.8070714 43.7492913,32.9186429 43.4381102,33.4650893 C43.0517165,34.1742018 42.7251654,34.9147571 42.4617323,35.6787679 L41.783937,35.48225 C41.9924409,34.8871179 42.2486929,34.3101161 42.5499213,33.7566964 C42.8598425,33.2089821 42.5889764,32.5928036 42.0459843,32.2796429 C41.5029921,31.9664821 40.8907087,32.0780536 40.5807874,32.6245 C40.1932598,33.3341196 39.8662047,34.0754357 39.6031496,34.8407143 C34.8825197,33.4257857 30.1870866,31.9246429 25.5395276,30.2764286 C24.6853543,29.9772143 23.8324409,29.6729286 22.9807874,29.3635714 C23.3058268,28.675125 24.7445669,25.8516071 27.4255118,23.5567857 C27.5847559,23.4209982 27.6046614,23.1809929 27.4697323,23.0207357 C27.4217323,22.9636821 27.3582362,22.9222232 27.2869291,22.9013036 L24.7017323,22.1405893 C26.3546457,20.794125 28.4535433,19.658125 31.0286614,19.2815714 C31.2364094,19.2607786 31.3880945,19.0745304 31.3674331,18.8654607 C31.3467717,18.6563911 31.1617008,18.5037411 30.9539528,18.5245339 C30.9422362,18.525675 30.9306457,18.52745 30.9190551,18.5297321 C27.8462992,18.9772857 25.4412598,20.4454643 23.6875591,21.9947857 C23.6646299,22.0106339 23.6439685,22.0293982 23.6258268,22.0505714 C23.0386142,22.5750839 22.4869291,23.1383929 21.9741732,23.7368214 C20.8734488,25.0120321 19.9479685,26.4303839 19.2226772,27.9537143 C16.6853543,26.9749286 14.1715906,25.9374411 11.6812598,24.841125 L11.6812598,24.841125 C11.5712756,24.7919321 11.4425197,24.8418857 11.3936378,24.9525696 C11.3698268,25.0064536 11.3685669,25.0678179 11.3902362,25.1225893 C11.4114016,25.1766 11.4524724,25.2202143 11.5048819,25.2443036 Z M57.1552756,64.7684821 C55.8619213,66.0321554 54.3590551,67.0584857 52.7143307,67.8011964 C52.0125984,67.2409304 51.4154331,66.5597107 50.9505512,65.7891071 C51.1622047,65.69275 51.3713386,65.5938571 51.5804724,65.4873571 C52.7163465,64.9083268 53.7747402,64.1866625 54.7300787,63.3396071 C54.9707087,63.1215357 55.2062992,62.8996607 55.4343307,62.6701786 C55.9474646,63.4177071 56.5232126,64.1197196 57.1552756,64.7684821 Z M46.8737008,34.6784286 C46.9770079,34.4958571 47.1256693,34.5123393 47.3070866,34.6163036 C47.4885039,34.7202679 47.6333858,34.869875 47.5300787,35.0549821 C47.2109606,35.6392107 46.9397165,36.2484161 46.7187402,36.8768929 L45.984252,36.6727679 C46.2258898,35.984575 46.5233386,35.3175554 46.8737008,34.6784286 Z M43.976063,33.8378393 C44.0793701,33.6552679 44.2280315,33.67175 44.4107087,33.7757143 C44.5933858,33.8796786 44.735748,34.0292857 44.6324409,34.2143929 C44.3102992,34.8064821 44.0364094,35.4238018 43.8135433,36.0603929 L43.0828346,35.8511964 C43.3224567,35.1566643 43.6186457,34.4833054 43.9685039,33.8378393 L43.976063,33.8378393 Z M41.1187402,32.99725 C41.2220472,32.8146786 41.3707087,32.8311607 41.552126,32.935125 C41.7335433,33.0390893 41.8784252,33.1886964 41.7751181,33.3738036 C41.4486929,33.9691893 41.1710236,34.5904393 40.9448819,35.2312143 L40.2166929,35.0169464 C40.4597165,34.3198786 40.759811,33.6443643 41.1137008,32.99725 L41.1187402,32.99725 Z M24.023937,22.7276071 L26.4251969,23.4325357 C24.7014803,25.0437286 23.2915906,26.9644054 22.2677165,29.0960536 C21.488252,28.8095179 20.7105512,28.5182911 19.9344882,28.2225 C20.9482835,26.1550054 22.3329764,24.2937911 24.0188976,22.7326786 L24.023937,22.7276071 Z" id="Shape" fill="#04294F" fill-rule="nonzero"></path>
                        <path d="M1.29511811,52.0911786 C1.21524409,52.1235089 1.13776378,52.1616714 1.06330709,52.2052857 C0.986456693,52.2477589 0.913637795,52.2969518 0.845354331,52.3523571 C0.697700787,52.4640554 0.578141732,52.6090982 0.496377953,52.7758214 C0.445480315,52.8698964 0.479874016,52.9876804 0.573354331,53.0390286 C0.636598425,53.0737679 0.713826772,53.0700911 0.773543307,53.0293929 L0.807559055,53.0078393 C1.02135433,52.8777571 1.25707087,52.7883732 1.50299213,52.744125 C1.76327559,52.6916357 2.02759055,52.6614607 2.29291339,52.6541071 C2.56,52.644725 2.82746457,52.6557554 3.09291339,52.6870714 C3.35785827,52.7180071 3.6183937,52.7801321 3.86897638,52.8721786 L3.88283465,52.8721786 C3.98475591,52.9098339 4.0976378,52.8570911 4.13505512,52.7546482 C4.15937008,52.6879589 4.14626772,52.6134089 4.1007874,52.5590179 C3.87187402,52.3029107 3.57656693,52.1162821 3.24787402,52.0201786 C2.93064567,51.9221732 2.5991811,51.8793196 2.26771654,51.8933929 C1.93448819,51.9013804 1.60529134,51.9683232 1.29511811,52.0911786 Z" id="Path" fill="#FFB400" fill-rule="nonzero"></path>
                    </g>
                </g>
            </g>
        </g>
    </g>
</svg>